<?xml version="1.0" standalone="no"?>
<!DOCTYPE svg PUBLIC "-//W3C//DTD SVG 20010904//EN"
 "http://www.w3.org/TR/2001/REC-SVG-20010904/DTD/svg10.dtd">
<svg version="1.0" xmlns="http://www.w3.org/2000/svg"
 width="960.000000pt" height="948.000000pt" viewBox="0 0 960.000000 948.000000"
 preserveAspectRatio="xMidYMid meet">

<g transform="translate(0.000000,948.000000) scale(0.100000,-0.100000)"
fill="#000000" stroke="none">
<path d="M4814 8980 c-12 -4 -24 -15 -27 -24 -7 -18 0 -193 8 -207 10 -15 71
-10 85 6 9 10 13 51 14 115 l1 100 -29 10 c-16 5 -29 10 -30 9 -1 0 -10 -4
-22 -9z"/>
<path d="M4605 8960 c-16 -17 -17 -30 -9 -116 9 -94 10 -98 36 -105 15 -4 36
-2 50 5 21 11 23 18 26 111 2 85 0 102 -15 112 -25 19 -67 16 -88 -7z"/>
<path d="M4986 8961 c-14 -15 -16 -36 -14 -117 l3 -99 41 -3 c25 -2 45 2 51
10 6 7 13 57 15 111 5 87 3 99 -13 107 -28 16 -64 12 -83 -9z"/>
<path d="M4420 8952 c-22 -18 -23 -20 -10 -119 11 -95 14 -102 37 -108 32 -8
61 2 72 24 6 10 7 58 4 110 -6 86 -8 93 -30 102 -35 13 -48 11 -73 -9z"/>
<path d="M5180 8950 c-16 -16 -20 -33 -20 -84 0 -35 -3 -77 -6 -93 -5 -27 -3
-32 25 -41 40 -14 79 0 85 30 3 13 8 60 11 105 6 75 5 83 -14 92 -30 17 -59
13 -81 -9z"/>
<path d="M4243 8935 c-40 -17 -42 -40 -14 -155 17 -72 19 -75 49 -78 44 -5 76
29 68 72 -4 17 -10 59 -13 94 -5 55 -9 65 -30 73 -13 5 -25 9 -26 9 -1 -1 -17
-7 -34 -15z"/>
<path d="M5372 8933 c-18 -15 -23 -34 -31 -108 -8 -84 -7 -91 11 -107 26 -23
53 -23 76 0 20 20 49 199 35 213 -20 20 -69 21 -91 2z"/>
<path d="M4065 8910 c-45 -18 -50 -36 -32 -108 9 -37 17 -79 17 -94 0 -21 6
-29 25 -34 40 -10 74 3 81 32 7 27 -25 204 -37 204 -4 0 -13 2 -21 4 -7 3 -22
1 -33 -4z"/>
<path d="M5562 8903 c-16 -13 -24 -38 -31 -94 -6 -41 -13 -83 -16 -92 -8 -20
47 -51 75 -42 30 10 39 28 55 116 19 108 19 104 -10 117 -35 16 -49 15 -73 -5z"/>
<path d="M3861 8864 c-19 -14 -22 -23 -19 -58 5 -44 26 -132 38 -156 10 -21
47 -24 76 -6 28 19 31 49 9 120 -8 27 -15 61 -15 77 0 41 -46 53 -89 23z"/>
<path d="M5754 8872 c-17 -11 -34 -48 -34 -74 0 -13 -6 -47 -13 -76 -13 -46
-12 -53 3 -67 21 -19 74 -19 90 0 6 8 21 54 31 102 l19 88 -21 18 c-22 18 -56
22 -75 9z"/>
<path d="M3670 8810 c-25 -25 -25 -25 7 -131 26 -85 28 -89 56 -89 71 0 82 36
46 149 -12 36 -23 72 -25 79 -5 19 -62 14 -84 -8z"/>
<path d="M5932 8821 c-19 -11 -62 -193 -50 -208 5 -6 23 -15 41 -19 26 -5 35
-2 54 20 13 15 23 37 23 49 1 12 9 47 20 77 l19 55 -20 18 c-22 18 -65 22 -87
8z"/>
<path d="M6118 8769 c-10 -5 -22 -29 -28 -52 -6 -23 -18 -64 -26 -91 -14 -44
-14 -50 2 -67 21 -24 66 -25 86 -1 12 14 41 92 66 179 3 12 -47 43 -70 43 -7
0 -21 -5 -30 -11z"/>
<path d="M3485 8753 c-21 -20 -17 -53 18 -148 28 -76 47 -89 93 -64 35 19 37
36 8 123 -14 45 -28 87 -30 94 -5 18 -70 15 -89 -5z"/>
<path d="M6300 8701 c-11 -9 -33 -54 -49 -101 l-31 -85 22 -18 c13 -11 33 -17
52 -15 34 3 40 13 82 121 24 64 25 70 9 87 -23 25 -62 31 -85 11z"/>
<path d="M3313 8695 c-31 -22 -29 -51 11 -142 31 -70 38 -78 64 -81 35 -4 62
19 62 52 0 13 -10 45 -22 72 -12 27 -24 63 -28 79 -5 24 -11 31 -35 33 -17 1
-40 -4 -52 -13z"/>
<path d="M3142 8628 c-37 -18 -37 -49 2 -126 20 -40 36 -78 36 -87 0 -22 63
-20 83 3 24 26 21 53 -12 124 -17 35 -32 71 -35 81 -6 19 -39 22 -74 5z"/>
<path d="M6469 8623 c-8 -9 -29 -52 -46 -97 l-33 -81 21 -17 c25 -21 72 -24
87 -5 6 7 27 50 46 95 34 82 34 84 15 103 -23 23 -72 25 -90 2z"/>
<path d="M4565 8624 c-276 -27 -466 -59 -681 -114 -900 -230 -1692 -778 -2229
-1545 -556 -794 -797 -1792 -665 -2753 81 -582 292 -1142 613 -1622 294 -439
685 -829 1108 -1103 554 -358 1102 -552 1758 -623 123 -13 215 -15 450 -11
299 5 401 14 636 58 1584 293 2835 1543 3124 3124 48 264 56 364 56 715 -1
349 -4 394 -56 689 -43 249 -148 598 -252 836 -370 856 -1028 1546 -1862 1957
-405 199 -756 304 -1251 374 -104 15 -649 28 -749 18z m168 -391 c4 -159 10
-368 14 -465 l6 -177 -34 -5 c-70 -11 -378 -46 -401 -46 -27 0 -30 10 -73 240
-8 41 -32 163 -54 270 -22 107 -38 196 -37 197 3 3 316 53 332 53 11 0 17 -44
44 -335 6 -60 13 -126 16 -146 l5 -37 -46 -7 c-26 -3 -48 -5 -50 -3 -3 3 -40
254 -51 352 l-7 58 -50 -5 c-28 -4 -54 -10 -58 -14 -4 -5 6 -82 22 -173 16
-91 34 -201 41 -245 6 -44 14 -83 17 -87 9 -10 281 26 283 37 3 29 -41 717
-47 723 -3 4 -561 -76 -582 -83 -12 -4 -8 -23 61 -320 115 -494 138 -590 142
-594 4 -4 529 56 584 67 l35 7 2 500 c2 275 3 506 3 514 0 39 696 -26 835 -79
l23 -9 -18 -73 c-45 -186 -190 -812 -190 -824 0 -9 -62 -1 -282 33 l-178 28 0
36 c0 20 4 92 9 160 6 68 12 171 15 229 4 58 9 149 12 203 l7 98 36 -5 c20 -3
93 -11 163 -17 70 -7 132 -15 138 -19 8 -5 7 -31 -3 -91 -8 -46 -28 -160 -43
-252 l-29 -168 -45 3 c-54 4 -53 -13 -22 238 12 96 18 177 14 181 -4 4 -28 9
-55 11 -56 4 -49 23 -72 -222 -8 -91 -18 -193 -21 -227 -5 -49 -4 -64 7 -68
21 -7 219 -35 251 -35 15 0 28 3 28 8 0 14 30 169 84 437 30 148 54 270 52
272 -1 1 -81 12 -177 23 -96 11 -228 27 -294 35 -65 8 -121 13 -123 10 -2 -2
-8 -149 -12 -327 -5 -178 -12 -387 -16 -465 -3 -79 -5 -143 -3 -143 2 -1 76
-12 164 -25 363 -55 448 -66 455 -58 4 4 24 71 45 148 20 77 50 187 65 245 34
126 74 277 101 380 38 144 60 210 69 210 42 0 317 -93 476 -160 135 -58 316
-149 312 -158 -3 -8 -131 -249 -200 -378 -24 -44 -86 -160 -138 -257 -52 -97
-98 -177 -103 -177 -5 0 -44 15 -86 34 -42 18 -132 57 -201 87 -69 29 -127 54
-129 56 -4 3 39 133 161 490 l70 202 37 -15 c20 -9 90 -36 156 -61 66 -25 122
-47 124 -49 2 -2 -12 -41 -32 -86 -42 -99 -169 -381 -174 -387 -4 -5 -83 21
-88 29 -2 3 28 82 66 175 39 92 71 180 72 193 2 22 -5 28 -44 43 l-47 18 -87
-231 c-48 -127 -88 -237 -89 -244 -1 -14 238 -128 254 -122 15 5 331 651 323
658 -12 12 -546 220 -551 215 -15 -14 -273 -888 -265 -895 8 -7 375 -167 501
-218 38 -16 66 -22 72 -16 9 10 36 54 323 553 99 172 186 315 193 318 42 16
679 -457 679 -504 0 -6 -22 -35 -49 -64 -64 -70 -285 -307 -449 -481 l-129
-136 -121 95 c-67 53 -148 117 -180 142 -32 24 -56 50 -55 57 7 29 394 593
405 589 6 -2 71 -47 143 -100 113 -84 129 -99 118 -113 -7 -9 -49 -59 -93
-113 -44 -53 -111 -135 -150 -183 -38 -47 -74 -86 -79 -86 -5 0 -24 11 -42 25
l-34 26 33 43 c17 24 74 99 126 167 l94 122 -29 24 c-59 48 -58 48 -112 -25
-178 -244 -253 -354 -246 -361 23 -20 200 -158 211 -164 7 -5 88 81 210 220
109 125 218 249 242 276 38 41 42 50 30 61 -13 12 -284 213 -417 310 -29 21
-54 37 -56 35 -9 -10 -486 -779 -488 -787 -2 -5 107 -96 241 -202 l243 -193
362 362 c198 198 366 361 372 361 15 0 199 -205 302 -335 82 -105 232 -319
232 -333 0 -4 -15 -16 -32 -26 -18 -11 -55 -34 -83 -51 -51 -33 -497 -309
-613 -380 -34 -21 -64 -36 -66 -34 -42 50 -266 363 -264 369 3 7 130 121 357
319 36 31 89 77 118 104 29 26 57 47 62 47 5 0 32 -28 59 -62 27 -35 73 -91
101 -126 28 -35 51 -69 51 -75 0 -7 -24 -28 -52 -47 -29 -19 -122 -86 -207
-148 l-156 -112 -27 32 c-15 18 -27 38 -27 43 0 6 71 64 159 130 87 66 159
125 159 130 1 6 -14 28 -33 49 l-33 40 -65 -55 c-35 -30 -84 -70 -108 -89 -24
-19 -86 -70 -137 -113 l-93 -78 86 -114 c52 -70 91 -112 98 -108 6 4 145 96
308 205 l298 198 -78 98 c-43 53 -127 159 -186 234 -95 120 -111 136 -126 125
-9 -7 -149 -136 -310 -287 -161 -151 -309 -289 -328 -306 l-35 -31 23 -34 c13
-19 51 -70 85 -114 33 -45 105 -142 160 -217 55 -76 104 -137 108 -138 8 0
270 149 642 365 83 48 173 100 201 116 l52 30 27 -47 c121 -207 335 -720 309
-743 -8 -8 -194 -65 -684 -212 -107 -32 -198 -55 -202 -51 -6 6 -168 409 -168
419 0 9 645 322 651 315 4 -4 36 -74 72 -157 54 -124 63 -151 51 -158 -37 -21
-467 -177 -474 -172 -14 9 -33 76 -24 84 5 5 88 41 184 81 96 40 178 74 182
76 5 4 -26 89 -37 102 -3 3 -97 -36 -225 -95 -36 -17 -103 -48 -150 -69 -47
-21 -89 -41 -93 -44 -6 -6 84 -254 97 -267 2 -2 118 35 257 82 140 47 292 99
339 114 82 26 85 29 84 57 -3 52 -187 481 -223 517 -6 6 -46 -10 -103 -40 -51
-28 -138 -74 -193 -103 -55 -30 -172 -92 -260 -139 -88 -48 -182 -97 -209
-111 -26 -14 -50 -30 -52 -36 -4 -8 204 -547 222 -575 2 -4 68 10 146 31 434
115 829 221 841 226 10 3 22 -31 45 -128 53 -223 77 -386 88 -600 l7 -125
-199 -6 c-109 -4 -319 -10 -466 -13 l-266 -7 -6 44 c-20 146 -46 368 -46 389
0 25 3 26 273 79 149 30 308 62 352 72 44 10 81 16 82 15 6 -6 56 -337 51
-341 -3 -3 -72 -12 -154 -20 -82 -8 -196 -20 -253 -26 -57 -5 -105 -9 -106 -7
-2 2 -6 24 -10 49 l-7 46 129 17 c70 10 142 19 158 21 17 2 52 7 79 10 l48 7
-6 51 c-4 28 -9 53 -11 56 -7 6 -503 -73 -511 -82 -3 -3 27 -280 30 -284 1 -1
53 2 116 7 63 5 205 14 315 20 110 5 224 13 254 16 l53 6 -5 41 c-4 23 -22
150 -42 282 -19 132 -35 246 -35 253 0 19 -41 15 -172 -19 -67 -16 -142 -34
-167 -39 -25 -5 -129 -29 -231 -53 -102 -24 -223 -52 -268 -62 l-84 -19 6 -50
c8 -73 55 -472 62 -528 l6 -48 512 0 c282 0 515 -2 517 -4 12 -12 -12 -390
-35 -541 -36 -240 -54 -317 -75 -311 -9 3 -65 16 -126 30 -60 14 -157 36 -215
49 -58 14 -204 48 -324 76 -121 28 -221 53 -224 55 -2 3 6 72 18 153 12 81 27
183 33 226 l11 77 30 0 c17 0 81 -4 141 -10 61 -5 209 -14 330 -21 121 -6 222
-12 223 -14 6 -6 -31 -330 -38 -338 -8 -9 -76 1 -359 50 l-153 27 5 43 c2 24
7 46 9 48 3 3 67 -4 144 -14 76 -11 169 -22 205 -26 l67 -6 3 51 c2 29 1 54
-4 57 -4 2 -49 8 -100 13 -50 5 -161 17 -245 25 -84 9 -156 14 -160 11 -9 -5
-48 -273 -41 -280 3 -4 574 -120 686 -140 31 -5 32 -4 38 37 10 69 64 552 62
553 -1 1 -101 5 -222 8 -121 4 -330 11 -464 16 -135 5 -246 8 -248 6 -5 -5
-93 -583 -93 -612 0 -6 24 -16 53 -23 28 -6 108 -27 177 -46 69 -19 244 -67
390 -106 146 -38 289 -77 318 -86 l54 -15 -7 -36 c-20 -109 -163 -490 -244
-648 -67 -133 -27 -137 -347 34 -153 82 -333 177 -399 212 -66 34 -124 66
-129 71 -8 7 154 402 173 421 5 6 678 -214 687 -225 5 -7 -123 -317 -131 -317
-6 0 -98 40 -205 88 -107 49 -210 94 -227 101 -37 15 -39 24 -18 75 l15 36 52
-21 c29 -11 75 -31 103 -43 60 -27 205 -84 223 -88 11 -3 57 90 49 99 -8 7
-482 182 -485 178 -13 -12 -114 -256 -109 -261 14 -14 650 -323 657 -319 4 3
25 49 45 102 21 54 69 176 107 272 38 95 67 175 65 178 -3 2 -94 31 -203 64
-506 155 -689 208 -695 201 -3 -4 -22 -45 -41 -92 -19 -47 -72 -170 -117 -274
-45 -103 -80 -193 -78 -200 4 -11 33 -29 262 -161 496 -286 599 -346 609 -355
26 -26 -322 -518 -463 -654 l-41 -40 -32 30 c-17 16 -68 63 -112 105 -45 42
-183 171 -309 288 l-227 212 38 47 c21 26 85 106 142 177 57 72 109 129 115
129 15 -2 594 -387 595 -396 0 -4 -46 -68 -101 -143 -90 -121 -103 -134 -118
-122 -31 27 -296 242 -338 275 -24 19 -43 38 -43 43 0 15 43 69 54 69 6 0 58
-37 116 -81 58 -44 129 -99 159 -122 l54 -41 33 39 c19 22 34 43 34 46 0 6
-124 98 -352 261 l-68 48 -62 -75 c-33 -42 -74 -93 -90 -114 l-28 -39 112 -98
c62 -54 115 -101 118 -104 3 -3 76 -68 163 -144 134 -118 160 -137 171 -125
25 26 346 460 346 467 0 4 -12 14 -28 23 -44 27 -224 139 -262 163 -19 13 -96
60 -170 106 -74 46 -177 109 -228 141 -51 33 -97 59 -102 59 -8 0 -82 -91
-294 -359 l-98 -124 361 -361 c198 -199 361 -366 361 -372 0 -20 -212 -208
-390 -345 -86 -67 -267 -189 -279 -189 -5 0 -162 249 -374 595 -44 72 -88 142
-98 157 -11 15 -19 31 -19 35 1 10 354 268 367 268 11 0 473 -523 473 -536 0
-12 -247 -209 -262 -209 -7 0 -24 17 -38 38 -14 20 -77 109 -140 197 -64 88
-119 165 -123 172 -5 8 7 22 33 39 22 15 42 25 44 23 2 -2 53 -70 114 -150 61
-80 117 -151 126 -158 13 -11 22 -8 56 19 22 17 40 34 40 37 0 4 -65 84 -262
321 -33 39 -64 72 -69 72 -8 0 -186 -129 -222 -160 -7 -6 51 -95 331 -512 l72
-108 54 43 c29 23 135 106 235 185 99 79 181 145 181 148 0 3 -39 47 -88 97
-48 51 -175 186 -282 301 -107 115 -212 227 -232 249 l-37 39 -113 -83 c-314
-230 -389 -291 -384 -306 6 -14 82 -147 372 -648 105 -180 131 -232 121 -242
-17 -17 -314 -164 -427 -211 -145 -61 -340 -126 -349 -116 -5 5 -24 63 -44
129 -20 66 -70 230 -111 365 -112 368 -116 384 -108 392 4 4 77 34 162 67 85
33 177 69 203 80 27 12 51 21 54 21 9 0 320 -645 314 -652 -4 -4 -74 -37 -156
-73 -110 -48 -151 -62 -157 -52 -8 12 -178 464 -178 472 0 6 68 35 81 35 5 0
14 -10 19 -22 5 -13 34 -81 64 -153 30 -71 61 -147 69 -167 l16 -38 48 21 c26
11 49 22 51 24 2 2 -14 43 -36 92 -22 48 -50 111 -63 138 -80 180 -109 240
-116 240 -17 0 -263 -98 -263 -105 0 -4 41 -126 91 -271 50 -145 101 -299 115
-341 14 -43 29 -78 34 -78 5 0 51 18 102 40 51 22 173 75 271 117 l177 76 -66
126 c-37 69 -77 144 -89 166 -12 22 -81 151 -154 287 -73 137 -136 248 -139
248 -6 0 -285 -110 -472 -186 -64 -25 -104 -47 -104 -56 1 -7 11 -47 22 -88
11 -41 68 -255 127 -474 59 -219 109 -404 111 -411 13 -32 -464 -118 -722
-131 l-132 -7 -6 229 c-4 126 -10 334 -14 462 -4 129 -4 236 -1 237 16 10 442
56 449 49 4 -5 39 -165 77 -356 l70 -347 -26 -5 c-80 -16 -312 -48 -316 -44
-7 7 -59 508 -53 513 2 2 24 6 49 10 l45 7 23 -169 c12 -92 25 -185 28 -207
l5 -39 50 6 c28 4 53 9 56 12 3 3 -9 94 -27 203 -19 108 -37 221 -42 250 -4
30 -9 55 -11 57 -2 1 -66 -5 -143 -14 -128 -15 -140 -18 -140 -36 0 -24 22
-385 35 -574 6 -74 12 -136 14 -139 7 -6 579 78 587 86 3 4 -11 77 -31 162
-21 85 -68 288 -106 450 -37 162 -69 297 -70 298 -1 2 -119 -10 -261 -27 -142
-17 -282 -34 -310 -37 l-53 -6 -2 -517 -3 -516 -30 -1 c-75 -2 -343 16 -457
31 -119 15 -355 59 -364 67 -2 2 12 71 32 154 19 82 44 187 54 234 51 227 120
513 124 517 8 8 441 -59 452 -69 3 -4 -1 -102 -10 -220 -8 -117 -18 -277 -22
-356 l-7 -143 -71 6 c-40 4 -117 12 -172 19 l-99 11 3 50 c2 28 19 141 38 252
19 111 34 205 34 209 0 7 88 0 95 -8 2 -2 -4 -64 -14 -138 -11 -74 -22 -167
-26 -206 l-7 -72 49 -4 c26 -3 52 -1 57 3 5 5 11 34 13 66 2 32 13 143 24 247
15 139 17 191 9 196 -14 8 -269 44 -275 38 -4 -3 -145 -696 -145 -711 0 -9 38
-15 325 -47 143 -16 263 -26 266 -22 5 6 41 924 36 929 -2 1 -50 9 -107 18
-388 59 -505 74 -511 68 -4 -5 -44 -145 -89 -313 -44 -168 -89 -334 -100 -370
-10 -36 -33 -120 -51 -188 -19 -75 -36 -121 -43 -119 -6 2 -72 23 -146 47 -74
23 -186 62 -250 87 -141 55 -390 173 -390 184 0 7 390 743 426 803 11 17 19
15 145 -39 74 -32 168 -73 209 -90 44 -19 75 -38 74 -46 -2 -21 -216 -652
-226 -665 -11 -15 -318 103 -318 123 0 7 32 81 70 164 39 83 70 152 70 154 0
1 16 37 35 79 l35 77 42 -22 c24 -12 44 -22 46 -24 1 -1 -10 -28 -24 -61 -15
-32 -49 -113 -76 -179 -27 -66 -52 -125 -55 -132 -4 -10 75 -53 97 -53 4 0 46
102 93 228 47 125 88 234 92 243 5 12 -20 27 -117 68 -68 29 -129 55 -135 58
-8 3 -69 -109 -173 -322 -88 -180 -160 -330 -160 -334 0 -3 62 -30 138 -60
364 -142 415 -161 418 -158 2 2 31 93 64 202 155 506 209 689 204 697 -3 4 -9
8 -15 8 -9 0 -45 15 -378 159 -90 39 -169 71 -175 71 -6 0 -26 -28 -45 -63
-19 -34 -82 -145 -141 -247 -59 -102 -156 -268 -215 -370 -59 -102 -111 -189
-116 -195 -12 -12 -50 9 -209 114 -180 119 -480 361 -480 386 0 10 13 24 149
170 36 39 131 140 211 225 244 261 263 280 272 280 5 0 30 -17 56 -38 26 -21
83 -67 127 -101 44 -35 97 -77 119 -95 21 -17 43 -34 49 -38 11 -7 -380 -607
-395 -608 -4 0 -67 44 -140 97 -73 53 -135 98 -137 99 -8 6 321 404 334 404
12 -1 65 -46 65 -56 0 -4 -55 -79 -122 -167 l-122 -160 40 -33 c21 -19 42 -34
46 -34 4 0 63 79 132 175 68 96 136 190 151 209 l26 34 -103 83 c-57 45 -108
86 -114 91 -8 6 -57 -44 -150 -149 -77 -87 -143 -163 -149 -169 -5 -6 -35 -39
-65 -75 -30 -35 -72 -82 -92 -105 -21 -23 -38 -44 -38 -47 0 -8 467 -357 477
-357 5 0 39 51 77 113 38 61 79 128 91 147 84 130 325 523 325 530 0 9 -430
354 -479 384 -10 6 -114 -92 -378 -355 l-364 -364 -76 80 c-95 100 -189 211
-285 340 -78 105 -168 240 -168 253 1 6 755 480 780 490 4 2 32 -30 61 -70 69
-94 65 -88 92 -123 13 -16 47 -63 76 -103 l53 -72 -49 -44 c-188 -169 -488
-426 -497 -426 -6 1 -36 33 -66 72 -30 39 -72 91 -92 115 -67 78 -71 69 70
168 69 50 161 116 204 147 43 32 84 58 91 58 11 0 63 -69 55 -74 -2 -1 -65
-50 -141 -109 -76 -59 -148 -113 -159 -121 -19 -14 -20 -18 -9 -38 26 -48 52
-72 66 -62 7 5 97 77 199 159 115 93 184 156 182 165 -1 8 -38 63 -81 122 -73
99 -80 106 -99 95 -12 -7 -151 -99 -309 -205 l-288 -193 33 -42 c46 -59 220
-278 240 -302 9 -11 35 -44 58 -73 48 -61 41 -63 148 40 37 35 105 99 152 143
95 88 224 210 348 328 l82 78 -29 37 c-15 20 -99 133 -186 249 -86 117 -159
213 -161 213 -3 0 -116 -64 -252 -142 -136 -78 -335 -193 -442 -254 -125 -72
-199 -109 -206 -103 -20 17 -163 305 -217 439 -65 160 -122 329 -114 336 5 5
78 29 487 154 284 87 396 118 401 112 3 -4 32 -74 64 -157 32 -82 68 -176 81
-208 l23 -58 -320 -159 c-177 -88 -324 -160 -327 -160 -9 1 -145 311 -139 316
4 4 476 184 482 184 3 0 35 -77 35 -85 0 -5 -69 -36 -190 -85 -52 -21 -116
-47 -142 -59 l-47 -20 17 -47 c9 -25 22 -48 28 -51 6 -2 59 19 117 46 59 28
133 62 164 75 134 56 194 88 190 99 -3 7 -24 58 -46 115 -23 57 -45 111 -51
122 -9 17 -18 15 -157 -31 -345 -113 -543 -184 -543 -194 0 -11 15 -46 142
-340 86 -196 90 -206 97 -203 15 7 407 216 511 273 63 34 159 86 213 114 53
29 97 53 97 55 0 1 -27 72 -61 157 -33 84 -84 214 -112 287 -39 98 -56 132
-69 132 -10 0 -120 -28 -245 -61 -238 -64 -369 -99 -538 -144 -55 -14 -122
-32 -148 -40 l-48 -14 -14 32 c-44 107 -107 508 -109 697 l-1 125 225 6 c124
4 331 10 461 14 l235 7 28 -226 c16 -125 27 -228 25 -230 -12 -10 -705 -141
-710 -134 -3 4 -15 76 -28 159 -12 83 -25 157 -27 163 -5 14 12 17 276 41 85
8 176 17 201 20 l46 6 6 -48 c3 -26 4 -49 4 -49 -2 -2 -274 -40 -354 -50 l-53
-6 0 -41 c0 -64 8 -71 76 -63 33 4 131 20 220 37 89 16 175 29 191 29 16 0 32
2 34 5 6 5 -25 283 -32 288 -2 2 -46 0 -97 -4 -52 -4 -192 -13 -313 -19 -120
-7 -240 -15 -266 -18 l-47 -7 3 -60 c5 -132 66 -503 85 -522 8 -9 -40 -19 703
154 l203 47 -5 35 c-3 20 -19 155 -35 301 -17 146 -33 271 -35 278 -3 9 -117
12 -521 12 l-517 0 7 148 c8 178 39 437 70 590 13 62 25 115 27 117 3 2 40 -5
84 -15 275 -66 355 -85 575 -135 135 -31 246 -58 248 -60 1 -1 -7 -65 -18
-141 -11 -77 -26 -174 -32 -216 -6 -42 -14 -82 -18 -89 -6 -9 -59 -8 -247 4
-131 9 -291 19 -356 23 -116 6 -117 6 -117 31 0 30 32 317 35 321 2 2 119 -16
260 -39 l257 -43 -6 -45 c-3 -24 -8 -46 -10 -48 -2 -2 -71 5 -152 16 -82 11
-174 23 -205 26 l-56 6 -6 -52 c-4 -29 -5 -55 -2 -57 2 -3 44 -8 92 -13 48 -5
158 -15 243 -24 85 -8 160 -15 167 -15 6 0 16 24 22 53 14 75 34 228 30 231
-5 5 -667 135 -699 139 -23 2 -25 -1 -31 -63 -4 -36 -19 -168 -34 -294 -14
-125 -24 -231 -21 -233 3 -3 150 -9 328 -14 178 -4 386 -11 464 -15 l141 -6 7
43 c22 139 78 528 80 553 l1 28 -385 104 c-541 146 -602 162 -605 166 -11 11
99 335 172 507 38 90 129 279 139 290 1 2 56 -25 121 -60 65 -34 192 -102 283
-151 91 -48 223 -118 293 -155 92 -49 127 -72 123 -83 -8 -27 -172 -399 -178
-406 -4 -3 -153 44 -332 105 -178 61 -329 111 -335 111 -5 0 -12 4 -15 8 -4 7
107 309 119 320 5 6 34 -6 280 -118 99 -45 184 -85 188 -89 7 -7 -19 -91 -28
-91 -1 0 -84 34 -184 75 -100 41 -187 75 -195 75 -13 0 -53 -87 -43 -96 4 -5
433 -170 468 -181 12 -3 29 27 72 128 31 73 56 134 54 135 -15 15 -654 321
-659 316 -7 -7 -66 -152 -177 -435 -24 -60 -39 -112 -35 -117 5 -4 110 -38
234 -75 124 -37 290 -88 370 -112 223 -67 282 -84 286 -80 12 11 244 563 241
571 -3 6 -53 39 -113 72 -60 34 -176 101 -259 149 -82 49 -179 105 -215 125
-246 140 -299 173 -294 184 25 44 127 203 168 261 126 179 318 410 341 410 8
0 47 -31 87 -70 40 -38 105 -99 143 -135 39 -36 140 -131 225 -211 85 -80 171
-160 192 -178 l36 -31 -141 -180 c-78 -98 -146 -179 -150 -179 -4 -1 -141 88
-303 196 -204 136 -293 201 -289 211 10 26 187 262 197 262 14 0 397 -313 397
-325 0 -5 -12 -25 -27 -43 l-27 -33 -163 126 c-89 69 -166 125 -170 125 -12
-1 -63 -80 -57 -90 5 -8 368 -273 402 -293 9 -6 101 97 184 209 5 6 -42 54
-123 125 -73 63 -182 158 -243 212 -60 54 -127 112 -147 128 l-37 30 -147
-198 c-80 -109 -159 -215 -175 -235 -16 -20 -29 -41 -29 -47 0 -5 48 -39 108
-75 59 -37 139 -86 177 -111 39 -25 86 -54 105 -65 19 -11 73 -44 120 -73 88
-54 93 -57 200 -126 36 -22 70 -41 77 -41 12 0 76 78 297 359 l98 125 -366
365 -366 365 23 24 c88 96 356 314 535 437 95 65 116 75 126 64 7 -8 113 -176
236 -374 123 -198 230 -370 238 -382 13 -21 8 -27 -169 -158 -100 -74 -185
-135 -189 -135 -9 0 -483 540 -478 544 1 2 60 48 131 104 70 56 132 102 137
102 8 0 76 -91 180 -239 14 -20 46 -66 73 -102 26 -37 47 -70 47 -75 0 -5 -16
-20 -36 -33 -42 -29 -24 -44 -173 152 -62 81 -115 147 -119 147 -4 0 -25 -15
-47 -34 l-39 -34 64 -79 c36 -43 108 -131 160 -195 52 -65 101 -117 108 -117
21 -1 231 162 224 174 -4 6 -96 144 -206 307 l-198 297 -140 -110 c-76 -61
-169 -133 -205 -162 -37 -29 -80 -64 -97 -78 l-30 -27 124 -133 c68 -74 129
-139 135 -145 5 -6 93 -99 194 -207 101 -108 187 -197 190 -197 3 0 37 24 75
53 69 52 151 113 329 242 53 39 96 73 97 77 0 4 -57 105 -126 225 -69 120
-171 297 -226 393 -56 96 -114 196 -129 223 -16 26 -29 51 -29 55 0 9 292 157
409 207 92 39 309 119 353 129 27 6 27 5 61 -106 76 -247 201 -657 218 -716
l18 -63 -47 -20 c-82 -36 -384 -150 -386 -147 -17 21 -315 643 -310 647 3 3
71 36 152 72 108 49 150 63 158 55 9 -9 184 -464 184 -478 0 -10 -83 -29 -91
-21 -6 6 -129 294 -152 355 -6 16 -10 16 -57 -4 -27 -11 -50 -25 -50 -30 0
-11 199 -451 209 -461 6 -6 256 85 269 97 2 3 -228 687 -234 695 -4 5 -45 -11
-154 -60 -47 -21 -155 -68 -240 -104 -85 -37 -157 -68 -159 -70 -2 -2 16 -39
39 -82 23 -43 63 -116 88 -163 25 -47 71 -132 102 -190 31 -58 90 -167 130
-243 39 -76 77 -140 84 -143 15 -6 581 221 579 232 -5 32 -250 944 -259 967
-8 21 17 31 156 63 185 42 466 79 626 83 l71 1 6 -287z"/>
<path d="M4565 7360 c-256 -29 -494 -91 -755 -197 -100 -41 -297 -149 -422
-233 -539 -360 -917 -892 -1092 -1535 -62 -228 -93 -556 -76 -812 24 -387 104
-681 276 -1027 330 -663 944 -1164 1668 -1361 208 -57 354 -77 607 -82 149 -4
279 -1 350 6 884 91 1675 636 2077 1428 129 255 202 475 254 768 20 115 22
163 23 420 0 342 -17 476 -97 745 -124 423 -344 794 -653 1105 -408 411 -877
654 -1455 755 -101 18 -174 23 -375 25 -137 2 -286 0 -330 -5z m483 -105 c463
-22 991 -229 1381 -542 339 -271 610 -639 775 -1054 25 -64 46 -123 46 -131 0
-9 -12 -19 -27 -22 -59 -14 -424 -110 -558 -147 -76 -21 -142 -35 -146 -31 -4
4 -19 39 -34 77 -209 540 -727 961 -1315 1072 -113 21 -414 29 -538 14 -279
-34 -536 -131 -778 -292 -173 -116 -380 -330 -506 -525 -35 -55 -121 -227
-143 -289 -10 -27 -21 -53 -25 -58 -3 -4 -112 22 -241 57 -129 35 -290 78
-359 96 -69 17 -128 35 -132 38 -10 11 66 205 139 352 380 764 1158 1303 1995
1380 139 13 226 17 298 13 30 -1 106 -5 168 -8z m17 -815 c228 -24 520 -132
724 -267 382 -254 627 -613 739 -1078 24 -103 26 -126 27 -350 0 -216 -2 -251
-23 -344 -92 -410 -299 -749 -607 -995 -205 -163 -401 -262 -647 -326 -176
-45 -254 -53 -485 -47 -191 4 -218 7 -331 36 -320 81 -565 213 -789 425 -239
227 -398 492 -482 806 -87 331 -78 639 30 977 166 517 605 947 1126 1102 104
30 231 58 298 64 86 8 335 6 420 -3z m-2385 -1040 c136 -37 319 -86 410 -109
45 -11 65 -21 64 -31 -1 -8 -13 -67 -27 -130 -60 -266 -56 -572 13 -839 11
-43 20 -81 20 -84 0 -2 -25 -9 -54 -16 -30 -7 -194 -50 -363 -96 -169 -46
-311 -81 -314 -77 -17 18 -55 191 -84 377 -35 222 -28 551 15 794 18 98 56
255 66 272 3 6 62 -8 254 -61z m4623 -53 c42 -180 57 -284 66 -463 10 -187 0
-409 -24 -548 -19 -110 -65 -308 -74 -318 -3 -4 -121 24 -261 62 -140 39 -302
82 -360 97 -58 14 -107 27 -109 29 -1 1 8 51 22 111 37 155 47 244 47 416 0
180 -13 296 -46 431 -14 54 -21 102 -17 106 4 4 114 35 243 69 129 34 287 77
350 95 63 18 120 31 126 29 6 -2 22 -54 37 -116z m-473 -1273 c157 -42 315
-83 353 -92 40 -9 67 -20 67 -28 0 -7 -20 -65 -45 -128 -280 -725 -870 -1273
-1620 -1505 -456 -141 -981 -143 -1451 -7 -674 196 -1247 681 -1556 1316 -57
115 -138 324 -130 331 4 3 81 25 172 48 91 24 245 65 343 92 98 27 189 49 201
49 18 0 25 -9 36 -42 7 -24 37 -92 67 -153 232 -463 632 -789 1133 -924 311
-84 703 -72 1005 31 388 132 718 390 938 735 48 75 129 230 142 272 18 57 36
90 48 86 6 -2 140 -39 297 -81z"/>
<path d="M4829 7107 c-81 -75 -91 -100 -83 -200 6 -76 4 -87 -19 -132 -14 -28
-38 -63 -53 -78 l-27 -29 21 -21 c21 -20 22 -20 62 -2 22 10 40 19 40 21 0 1
-5 15 -10 30 -10 25 -7 31 30 69 l41 42 -20 54 -21 53 32 33 c28 29 30 35 20
58 -19 41 -15 49 33 68 49 21 53 31 27 64 l-17 23 -56 -53z m57 -4 c-10 -10
-19 5 -10 18 6 11 8 11 12 0 2 -7 1 -15 -2 -18z m-76 -102 c0 -6 -4 -13 -10
-16 -5 -3 -10 1 -10 9 0 9 5 16 10 16 6 0 10 -4 10 -9z m-20 -186 c0 -8 -4
-15 -9 -15 -13 0 -22 16 -14 24 11 11 23 6 23 -9z m-70 -130 c0 -8 -7 -15 -15
-15 -16 0 -20 12 -8 23 11 12 23 8 23 -8z"/>
<path d="M4500 7141 c-24 -7 -25 -11 -33 -110 -4 -57 -6 -106 -3 -108 8 -8 43
16 51 34 3 10 15 57 24 106 20 96 21 95 -39 78z"/>
<path d="M4893 7059 l-41 -19 11 -36 c10 -34 9 -38 -19 -63 l-30 -27 20 -58
21 -58 -43 -38 c-38 -34 -42 -41 -32 -60 17 -32 8 -52 -29 -65 -43 -14 -47
-25 -21 -58 26 -33 37 -28 105 57 64 78 75 111 68 217 l-6 86 46 43 45 43 -21
28 c-24 33 -20 33 -74 8z"/>
<path d="M5357 7023 c-3 -5 -40 -114 -82 -243 -43 -129 -80 -240 -82 -246 -5
-14 39 -27 61 -18 31 12 46 49 34 90 -10 37 -9 39 32 78 40 36 42 41 36 80 -3
23 -8 51 -12 62 -5 18 3 28 40 53 25 18 46 40 46 49 0 30 -19 85 -32 94 -16
10 -35 10 -41 1z m43 -84 c0 -5 -7 -9 -15 -9 -15 0 -20 12 -9 23 8 8 24 -1 24
-14z m-70 -194 c0 -8 -4 -15 -10 -15 -5 0 -10 7 -10 15 0 8 5 15 10 15 6 0 10
-7 10 -15z m-60 -163 c0 -13 -12 -22 -22 -16 -10 6 -1 24 13 24 5 0 9 -4 9 -8z"/>
<path d="M5446 6958 l6 -53 -45 -32 -45 -31 9 -49 c5 -26 11 -53 14 -60 4 -13
-4 -24 -55 -66 -33 -28 -33 -33 -14 -99 3 -9 -4 -26 -16 -38 -12 -12 -19 -24
-17 -27 3 -2 27 -5 53 -6 l47 -2 16 47 c9 26 18 49 21 52 3 3 33 -2 65 -10
147 -39 247 23 263 162 8 71 -5 111 -51 158 -36 38 -56 48 -143 75 -56 17
-104 31 -108 31 -3 0 -3 -24 0 -52z m101 -166 c4 -19 1 -30 -17 -44 -43 -35
-70 -15 -50 38 19 50 55 54 67 6z"/>
<path d="M4078 6960 c-36 -11 -114 -66 -122 -86 -4 -11 2 -26 15 -41 21 -22
22 -27 11 -84 l-11 -61 35 -32 c30 -27 35 -38 32 -67 -3 -29 2 -36 29 -54 27
-17 32 -26 33 -57 l0 -38 48 0 c57 0 151 30 190 60 45 36 72 89 72 145 0 54
-37 175 -54 175 -22 0 -226 -75 -226 -84 0 -4 14 -26 31 -48 27 -34 35 -38 60
-33 26 6 29 4 29 -19 0 -34 -39 -60 -78 -51 -97 21 -136 200 -52 235 16 7 41
9 56 6 21 -6 40 2 91 36 l65 42 -26 23 c-45 39 -156 55 -228 33z"/>
<path d="M3911 6803 c-17 -60 -13 -153 8 -199 37 -82 142 -174 162 -142 16 24
9 38 -27 56 -34 16 -36 19 -31 59 4 37 1 45 -30 75 -33 32 -34 34 -28 91 6 48
4 62 -11 78 -24 27 -32 24 -43 -18z m39 -43 c0 -5 -4 -10 -10 -10 -5 0 -10 5
-10 10 0 6 5 10 10 10 6 0 10 -4 10 -10z m20 -150 c0 -5 -4 -10 -10 -10 -5 0
-10 5 -10 10 0 6 5 10 10 10 6 0 10 -4 10 -10z m90 -120 c0 -5 -4 -10 -9 -10
-6 0 -13 5 -16 10 -3 6 1 10 9 10 9 0 16 -4 16 -10z"/>
<path d="M5879 6748 c-23 -40 -82 -140 -131 -222 -48 -82 -88 -155 -88 -162 0
-20 37 -27 75 -14 35 11 35 12 35 71 l0 59 44 22 44 21 6 67 7 66 49 29 c48
28 50 31 50 72 0 32 -5 45 -19 53 -11 5 -22 10 -25 10 -3 0 -24 -33 -47 -72z
m61 2 c0 -5 -4 -10 -10 -10 -5 0 -10 5 -10 10 0 6 5 10 10 10 6 0 10 -4 10
-10z m-100 -190 c0 -5 -4 -10 -10 -10 -5 0 -10 5 -10 10 0 6 5 10 10 10 6 0
10 -4 10 -10z m-100 -145 c0 -8 -4 -15 -10 -15 -5 0 -10 7 -10 15 0 8 5 15 10
15 6 0 10 -7 10 -15z"/>
<path d="M3648 6764 c-21 -13 -38 -28 -38 -33 0 -6 14 -19 30 -31 27 -20 30
-26 30 -79 l0 -58 59 -36 58 -36 -4 -48 -4 -48 53 -30 c35 -21 53 -37 53 -50
0 -11 2 -19 5 -19 18 5 80 48 78 53 -3 7 -190 313 -240 394 -17 26 -33 47 -37
46 -3 0 -23 -11 -43 -25z"/>
<path d="M5995 6740 c-6 -35 -13 -43 -55 -66 l-48 -26 -7 -70 -7 -69 -44 -22
-44 -21 0 -58 c0 -43 -4 -60 -15 -64 -8 -4 -15 -10 -15 -15 0 -9 58 -49 72
-49 7 0 250 406 263 440 4 11 -8 22 -40 38 -25 12 -47 22 -49 22 -3 0 -7 -18
-11 -40z"/>
<path d="M3553 6695 c-22 -15 -21 -17 109 -233 72 -119 136 -223 142 -230 17
-18 42 12 51 59 6 34 5 36 -44 63 l-51 27 0 52 c0 49 -2 54 -32 71 -66 38 -78
55 -78 113 0 49 -2 55 -32 73 -40 24 -38 24 -65 5z m57 -45 c0 -5 -4 -10 -10
-10 -5 0 -10 5 -10 10 0 6 5 10 10 10 6 0 10 -4 10 -10z m117 -186 c-9 -9 -28
6 -21 18 4 6 10 6 17 -1 6 -6 8 -13 4 -17z m83 -142 c0 -13 -12 -22 -22 -16
-10 6 -1 24 13 24 5 0 9 -4 9 -8z"/>
<path d="M6125 6539 c-55 -27 -88 -62 -124 -129 -61 -114 -34 -249 63 -318 53
-38 96 -51 96 -29 0 9 -4 18 -9 22 -5 3 -17 27 -26 54 -13 40 -22 51 -55 66
-60 27 -63 36 -30 75 28 33 30 38 24 98 l-7 62 50 0 c43 0 57 5 107 45 32 25
62 42 67 40 4 -3 20 -28 35 -55 24 -43 31 -50 58 -50 17 0 48 -3 69 -6 25 -5
37 -3 37 5 0 20 -89 102 -133 121 -58 27 -168 26 -222 -1z m45 -39 c0 -5 -4
-10 -10 -10 -5 0 -10 5 -10 10 0 6 5 10 10 10 6 0 10 -4 10 -10z m230 -41 c0
-5 -4 -9 -10 -9 -5 0 -10 7 -10 16 0 8 5 12 10 9 6 -3 10 -10 10 -16z m-366
-130 c-3 -5 -10 -7 -15 -3 -5 3 -7 10 -3 15 3 5 10 7 15 3 5 -3 7 -10 3 -15z
m61 -179 c3 -5 -1 -10 -9 -10 -9 0 -16 5 -16 10 0 6 4 10 9 10 6 0 13 -4 16
-10z"/>
<path d="M3310 6499 c-59 -44 -150 -129 -150 -140 0 -4 14 -12 30 -19 20 -8
32 -22 35 -39 14 -68 19 -74 70 -90 l50 -16 3 -52 3 -51 50 -12 c53 -13 69
-33 69 -85 0 -37 12 -36 59 4 l45 38 -49 52 c-26 28 -46 53 -44 56 3 2 38 -5
79 -15 41 -11 76 -20 77 -20 9 0 93 141 89 148 -3 5 -20 12 -38 16 -18 3 -57
14 -86 23 -42 13 -52 19 -46 32 3 9 9 37 11 62 5 45 3 49 -44 98 -47 49 -51
51 -104 51 -48 0 -60 -5 -109 -41z m84 -135 c28 -11 13 -94 -16 -94 -16 0 -58
41 -58 56 0 12 37 44 51 44 4 0 14 -3 23 -6z"/>
<path d="M6225 6465 c-35 -30 -47 -34 -93 -35 l-54 0 7 -62 c6 -59 5 -65 -19
-87 -14 -14 -26 -28 -26 -33 0 -4 22 -19 49 -32 42 -22 50 -31 62 -71 16 -52
28 -56 52 -16 22 38 21 48 -4 56 -25 8 -59 61 -59 93 0 36 27 80 60 97 34 17
68 13 116 -16 30 -18 31 -18 74 3 37 18 40 23 24 29 -10 4 -33 8 -51 8 -28 1
-36 8 -60 51 -15 27 -30 50 -33 50 -3 0 -23 -16 -45 -35z"/>
<path d="M3117 6322 c-23 -25 -22 -27 15 -68 74 -81 98 -107 192 -213 122
-136 147 -144 125 -42 -10 48 -13 51 -52 61 -23 6 -47 13 -53 15 -6 2 -15 28
-18 58 -7 54 -8 56 -44 62 -55 9 -64 18 -70 70 -4 42 -9 49 -38 61 -41 17 -38
18 -57 -4z m44 -25 c-1 -12 -15 -9 -19 4 -3 6 1 10 8 8 6 -3 11 -8 11 -12z
m129 -135 c0 -13 -12 -22 -22 -16 -10 6 -1 24 13 24 5 0 9 -4 9 -8z m111 -145
c-13 -13 -26 -3 -16 12 3 6 11 8 17 5 6 -4 6 -10 -1 -17z"/>
<path d="M2921 6081 c-41 -61 -72 -113 -70 -115 2 -2 20 -8 39 -13 28 -7 40
-19 60 -56 l25 -47 57 0 56 0 23 -55 22 -54 56 -3 c51 -3 57 -6 70 -33 l15
-30 12 30 c20 46 17 62 -18 86 -18 12 -43 31 -55 42 l-23 20 21 34 c12 19 20
36 18 37 -2 2 -29 18 -58 36 -59 34 -60 34 -90 -19 -7 -11 -13 -10 -35 4 -14
10 -26 20 -26 24 0 3 16 28 35 55 l34 49 -19 26 c-10 14 -31 41 -47 60 l-29
33 -73 -111z"/>
<path d="M6550 6150 c-63 -22 -169 -57 -235 -76 -66 -20 -124 -40 -129 -45 -5
-5 6 -24 26 -44 l35 -37 39 47 c37 46 39 47 79 40 111 -19 100 -21 126 27 l24
43 80 3 c68 2 82 6 96 24 13 17 14 26 6 40 -7 10 -16 18 -22 18 -5 0 -62 -18
-125 -40z m112 -5 c0 -5 -5 -11 -11 -13 -6 -2 -11 4 -11 13 0 9 5 15 11 13 6
-2 11 -8 11 -13z m-202 -75 c0 -5 -4 -10 -10 -10 -5 0 -10 5 -10 10 0 6 5 10
10 10 6 0 10 -4 10 -10z m-200 -49 c0 -6 -4 -13 -10 -16 -5 -3 -10 1 -10 9 0
9 5 16 10 16 6 0 10 -4 10 -9z"/>
<path d="M6705 6106 c-18 -27 -19 -27 -95 -20 l-76 6 -24 -46 c-28 -51 -35
-53 -120 -35 -50 11 -53 10 -82 -17 -57 -55 -57 -89 -1 -116 43 -21 95 -96 88
-127 -5 -22 4 -35 54 -85 33 -33 62 -58 64 -55 2 2 75 93 161 202 179 224 169
189 85 281 l-37 39 -17 -27z m-145 -166 c-23 -27 -47 -50 -54 -50 -11 0 -41
39 -34 45 5 6 113 53 121 54 5 1 -10 -21 -33 -49z"/>
<path d="M2815 5920 c-11 -12 -15 -24 -9 -29 5 -5 74 -53 154 -107 80 -53 174
-117 209 -142 61 -42 65 -43 78 -26 18 25 16 43 -7 82 -18 29 -25 33 -58 31
-58 -3 -60 -2 -87 51 -25 49 -26 50 -70 50 -47 0 -49 2 -94 65 -23 33 -35 41
-63 43 -24 2 -40 -4 -53 -18z m85 -18 c0 -13 -12 -22 -22 -16 -10 6 -1 24 13
24 5 0 9 -4 9 -8z m160 -117 c0 -8 -4 -15 -10 -15 -5 0 -10 7 -10 15 0 8 5 15
10 15 6 0 10 -7 10 -15z m151 -108 c-1 -12 -15 -9 -19 4 -3 6 1 10 8 8 6 -3
11 -8 11 -12z"/>
<path d="M4705 6300 c-167 -27 -333 -89 -465 -175 -105 -68 -263 -231 -321
-330 -94 -162 -134 -311 -132 -495 2 -185 52 -345 155 -492 10 -13 6 -40 -16
-132 -20 -82 -26 -126 -21 -155 6 -38 70 -151 93 -165 18 -11 71 -160 82 -232
6 -38 15 -141 20 -229 10 -167 22 -231 58 -302 12 -23 22 -50 22 -60 0 -44 59
-140 123 -199 128 -120 261 -158 552 -158 280 1 414 39 536 151 69 65 101 114
125 198 9 33 23 69 30 80 29 47 45 136 54 314 6 101 17 209 25 241 25 96 64
190 91 218 37 39 72 102 79 143 4 24 -2 70 -19 140 -14 57 -26 112 -26 122 0
10 14 39 31 63 99 144 147 354 127 556 -41 420 -374 779 -816 879 -101 22
-300 32 -387 19z m185 -23 c0 -2 -7 -27 -16 -56 -18 -63 -33 -62 -55 4 -9 31
-18 44 -23 37 -12 -20 3 -68 30 -93 l26 -24 24 28 c17 20 24 40 24 69 l0 41
63 -7 c84 -8 224 -47 323 -89 83 -35 224 -122 224 -139 0 -5 -17 5 -38 22 -21
16 -69 41 -107 54 -39 13 -78 27 -87 31 -12 5 -18 3 -18 -6 1 -16 67 -59 120
-79 19 -7 39 -17 44 -22 6 -4 14 -8 19 -8 18 0 -6 21 -51 45 -26 14 -36 23
-22 19 49 -12 112 -56 143 -100 35 -49 47 -52 22 -4 -23 45 -11 49 30 10 38
-36 43 -50 21 -50 -8 0 -16 -7 -20 -15 -3 -8 -15 -15 -26 -15 -11 0 -20 -5
-20 -11 0 -6 -6 -17 -14 -24 -12 -12 -23 -10 -78 18 -68 35 -132 106 -144 162
-4 16 -9 24 -12 17 -8 -23 27 -97 63 -133 40 -40 43 -49 15 -49 -30 0 -73 -24
-128 -73 -27 -23 -57 -47 -68 -54 -18 -11 -17 -12 6 -13 24 0 206 -69 184 -70
-15 0 -83 -69 -100 -101 -7 -15 -19 -44 -27 -65 l-13 -39 103 3 104 4 -25 -25
c-14 -14 -32 -51 -41 -83 -9 -33 -22 -76 -30 -98 -14 -36 -13 -38 3 -24 22 19
72 34 141 43 30 3 71 12 92 19 l38 13 6 -37 c3 -20 23 -65 44 -99 34 -55 39
-60 44 -39 4 13 30 49 58 81 l53 57 22 -52 c18 -42 23 -48 24 -27 0 25 31 64
42 53 6 -6 0 -109 -8 -133 -2 -8 -8 -11 -12 -7 -4 4 -15 -16 -24 -46 -17 -50
-17 -37 -2 45 11 56 -12 17 -35 -62 -12 -40 -24 -71 -26 -69 -3 2 4 40 14 83
11 44 18 81 16 83 -2 2 -13 -23 -24 -55 -12 -32 -26 -67 -31 -78 l-9 -20 0 20
c-1 11 6 45 14 75 23 85 16 93 -11 15 -46 -131 -43 -317 8 -488 19 -64 21
-147 4 -164 -3 -3 -17 -1 -31 5 -38 18 -96 15 -135 -7 -43 -23 -84 -94 -76
-133 3 -16 4 -28 2 -28 -1 0 -20 24 -40 54 -38 55 -44 95 -17 104 10 3 12 0 8
-12 -4 -10 -1 -16 7 -16 8 0 16 6 19 14 6 15 -11 36 -30 36 -17 0 -47 -46 -38
-60 9 -14 5 -13 -40 10 -22 11 -51 20 -65 20 -25 0 -50 16 -50 32 0 4 9 8 20
8 11 0 20 5 20 10 0 6 -7 10 -16 10 -14 0 -14 3 -4 15 16 19 30 19 30 0 0 -21
45 -48 70 -40 11 3 25 15 31 26 10 20 10 20 35 0 33 -26 66 -15 78 27 7 26 13
31 31 26 29 -7 65 11 65 33 0 13 3 14 12 5 15 -15 51 -15 66 0 18 18 15 46 -7
60 -14 9 -18 19 -14 42 4 23 -1 36 -16 50 l-20 18 20 28 c30 40 22 62 -29 87
-2 0 4 15 12 31 9 17 13 38 10 46 -6 15 -36 30 -64 31 -10 0 -14 9 -12 24 6
56 -50 90 -90 54 -16 -14 -18 -14 -18 -1 0 9 -8 26 -18 38 -24 29 -67 21 -84
-15 -11 -24 -11 -25 -25 -5 -16 22 -62 27 -81 8 -7 -7 -12 -23 -12 -37 0 -22
-1 -23 -17 -9 -44 38 -103 25 -103 -23 0 -15 -5 -17 -30 -13 -39 8 -60 -10
-60 -51 0 -28 -3 -32 -19 -28 -32 8 -61 -14 -61 -48 0 -19 -4 -28 -11 -24 -5
4 -21 4 -35 1 -21 -6 -25 -12 -22 -39 3 -29 6 -32 36 -32 25 0 31 -3 26 -15
-23 -55 -10 -80 42 -80 29 0 34 -3 34 -24 0 -34 27 -59 56 -52 14 4 24 2 24
-4 0 -23 40 -50 65 -44 21 5 25 3 25 -18 0 -28 17 -48 40 -48 12 0 15 -8 12
-35 -4 -30 -10 -36 -48 -51 -29 -11 -52 -14 -71 -8 -26 7 -26 8 -6 11 20 4 22
10 20 46 -3 45 -19 56 -49 34 -16 -12 -22 -34 -19 -69 1 -20 56 -52 77 -44 18
7 18 1 -7 -64 -24 -63 -36 -80 -56 -80 -10 0 -11 4 -3 19 13 26 13 31 -4 31
-26 0 -31 -42 -7 -61 21 -17 21 -17 -25 -39 -52 -26 -79 -60 -69 -90 8 -24 41
-44 61 -36 16 6 19 46 4 46 -5 0 -10 -7 -10 -15 0 -19 -14 -19 -29 -1 -18 21
-3 45 43 68 60 30 85 57 98 105 12 48 14 50 39 27 15 -14 19 -13 44 9 29 24
28 47 -2 47 -10 0 -14 -6 -10 -20 6 -24 -3 -32 -23 -20 -11 7 -11 13 0 39 18
44 56 71 100 71 44 0 52 -6 38 -30 -9 -14 -9 -22 1 -34 20 -24 51 -20 51 5 0
18 -2 19 -15 9 -17 -14 -31 -8 -20 9 14 23 42 9 98 -50 32 -34 56 -64 53 -67
-3 -3 -14 2 -24 11 -28 26 -104 57 -140 57 -42 0 -67 -13 -114 -58 -48 -46
-50 -63 -2 -20 72 67 126 80 70 18 -45 -50 -47 -64 -3 -23 47 44 81 54 40 11
-40 -41 -44 -62 -5 -26 33 32 79 52 87 37 4 -5 -7 -25 -24 -44 -65 -74 -105
-183 -99 -271 2 -38 0 -63 -6 -61 -5 2 -11 13 -13 26 -8 52 -22 55 -16 3 6
-50 -8 -102 -28 -102 -4 0 -9 35 -11 78 -4 61 -2 80 10 90 9 6 11 12 5 12 -23
0 -32 -30 -35 -116 -3 -81 -5 -89 -23 -89 -18 0 -20 8 -23 83 -2 45 -7 82 -12
82 -5 0 -8 -10 -8 -22 1 -13 1 -53 0 -90 -2 -64 -3 -68 -26 -68 -22 0 -23 4
-29 86 -4 63 -9 91 -22 103 -16 15 -17 15 -6 -7 13 -24 13 -162 1 -182 -4 -6
-20 -10 -36 -8 -27 3 -29 7 -39 68 -10 58 -41 128 -52 116 -3 -2 2 -15 10 -28
9 -13 17 -53 19 -93 3 -67 2 -70 -23 -79 -14 -5 -38 -6 -53 -2 l-27 7 3 88 c2
68 0 87 -9 84 -9 -4 -13 -30 -13 -82 0 -47 -5 -82 -12 -89 -15 -15 -53 -16
-79 -2 -26 15 -26 99 2 160 l20 45 -21 -23 c-14 -15 -26 -48 -34 -95 l-12 -72
-34 0 -35 0 0 97 c0 118 -16 115 -23 -4 -5 -87 -13 -103 -45 -87 -16 9 -18 21
-15 95 2 46 0 84 -4 84 -5 0 -8 -36 -8 -80 0 -63 -3 -82 -15 -86 -30 -12 -40
12 -40 99 0 47 -3 80 -7 74 -4 -7 -8 -42 -8 -79 0 -38 -4 -68 -10 -68 -14 0
-42 58 -36 78 2 9 7 31 10 47 l6 30 -15 -25 c-8 -14 -14 -33 -15 -42 0 -10 -4
-18 -9 -18 -4 0 -7 34 -6 75 2 41 -1 75 -6 75 -5 0 -9 9 -9 20 0 29 -54 132
-90 173 -22 26 -27 36 -16 40 18 7 67 -18 88 -46 9 -12 20 -19 24 -15 4 4 -9
23 -29 43 -41 41 -29 47 20 9 40 -30 43 -21 6 18 -42 44 -4 35 59 -14 53 -42
53 -42 27 -8 -58 76 -149 90 -231 34 -71 -48 -71 -48 -60 -27 6 10 32 42 59
71 48 50 83 66 98 41 10 -16 -3 -23 -18 -11 -16 14 -28 6 -20 -14 8 -20 41
-17 53 5 7 15 6 23 -5 34 -19 20 -9 27 39 27 48 0 80 -19 102 -61 12 -24 13
-34 3 -45 -15 -18 -31 -7 -24 17 4 13 2 19 -9 19 -22 0 -29 -17 -16 -40 13
-25 55 -26 69 -2 8 14 10 15 14 2 28 -92 40 -111 80 -131 55 -28 77 -48 77
-70 0 -27 -19 -34 -35 -13 -14 18 -14 18 -15 -2 0 -34 31 -39 57 -9 19 22 21
29 11 51 -7 15 -33 36 -61 50 l-48 25 22 18 c18 15 20 21 10 39 -6 12 -16 22
-21 22 -14 0 -12 -24 2 -38 9 -9 9 -12 -3 -12 -22 0 -44 28 -59 75 -7 22 -16
44 -21 49 -16 17 -10 27 14 21 57 -15 101 70 57 110 -28 25 -45 13 -47 -33 -1
-31 2 -42 15 -45 15 -3 15 -5 -2 -12 -12 -5 -39 -1 -72 10 -49 17 -53 20 -47
43 3 14 1 27 -6 32 -8 4 -1 9 18 13 25 5 33 13 38 38 5 25 10 30 26 25 28 -7
57 11 57 35 0 18 4 20 29 14 23 -5 32 -2 45 17 9 12 16 30 16 40 0 12 10 18
36 20 44 4 60 32 40 70 -12 23 -11 23 20 20 29 -4 34 -1 40 22 8 34 -12 59
-43 53 -19 -3 -23 0 -23 19 0 33 -28 57 -59 51 -24 -5 -26 -3 -26 30 0 46 -23
62 -64 46 -24 -9 -29 -8 -24 3 8 20 -24 64 -46 64 -10 0 -29 -9 -42 -19 l-24
-19 -10 32 c-12 38 -55 48 -86 20 -17 -16 -22 -16 -29 -4 -6 8 -10 18 -10 22
0 4 -11 10 -25 14 -28 7 -65 -18 -65 -44 0 -10 -5 -12 -17 -7 -10 4 -30 10
-45 12 -31 6 -51 -22 -46 -65 2 -18 -2 -27 -12 -28 -8 0 -23 -2 -33 -2 -9 -1
-22 -13 -28 -26 -9 -19 -7 -29 6 -50 17 -25 16 -26 -9 -37 -32 -15 -35 -58 -6
-84 l20 -18 -21 -23 c-16 -17 -20 -31 -16 -52 4 -21 1 -31 -14 -40 -21 -14
-25 -42 -7 -60 17 -17 38 -15 60 5 17 15 18 15 18 -5 0 -26 32 -45 63 -37 19
5 24 1 32 -26 13 -43 46 -54 79 -28 23 18 27 19 32 4 17 -42 75 -42 97 1 12
23 15 24 26 10 9 -11 10 -16 2 -16 -6 0 -11 -4 -11 -10 0 -5 9 -10 20 -10 11
0 20 -4 20 -8 0 -16 -25 -32 -50 -32 -14 0 -43 -9 -65 -20 -48 -25 -45 -25
-45 4 0 32 -26 53 -48 39 -20 -12 -22 -35 -4 -40 6 -3 12 3 12 12 0 24 24 12
28 -14 2 -14 -11 -44 -35 -78 l-38 -56 -5 44 c-7 52 -19 75 -55 109 -22 21
-36 25 -83 24 -31 0 -67 -4 -79 -8 -17 -6 -23 -3 -28 16 -12 36 -8 69 21 185
44 169 38 383 -13 473 -10 19 -13 20 -9 5 2 -11 10 -44 16 -73 7 -29 10 -56 6
-59 -3 -3 -8 0 -10 8 -23 69 -50 139 -53 139 -3 0 -3 -10 0 -22 24 -96 34
-147 27 -143 -4 3 -16 34 -25 70 -10 36 -23 69 -28 72 -6 4 -8 -4 -4 -18 3
-13 8 -40 11 -59 5 -29 3 -27 -13 15 -12 29 -20 42 -21 30 -3 -39 -20 23 -27
98 -6 66 -5 70 12 63 18 -6 18 -6 2 12 -31 34 -19 136 35 305 31 98 110 241
165 299 l26 27 41 -20 41 -20 -35 31 c-44 39 -25 39 28 0 111 -80 124 -246 26
-344 -65 -64 -166 -84 -249 -47 -55 24 -55 24 -55 11 0 -5 7 -10 15 -10 8 0
15 -7 15 -15 0 -8 6 -12 14 -9 20 8 56 -14 56 -34 1 -15 3 -15 16 3 15 20 15
20 30 1 8 -11 14 -14 14 -8 0 7 12 17 27 23 22 8 30 6 50 -13 l25 -23 -7 28
c-6 23 -4 27 13 27 12 0 24 -4 27 -10 12 -20 21 -9 17 20 -5 38 21 70 56 70
20 0 22 2 12 15 -16 20 -2 38 26 32 l23 -4 -19 25 c-34 43 -27 55 28 47 40 -5
60 -1 135 29 48 20 98 36 110 36 19 0 17 5 -18 35 -65 57 -120 93 -151 100
l-29 6 30 -17 c26 -15 135 -94 135 -98 0 0 -24 -1 -53 -2 -28 0 -65 -8 -82
-17 -35 -19 -21 -21 40 -6 78 20 83 5 7 -24 -91 -34 -172 -37 -172 -8 0 11 5
23 10 26 8 5 7 11 -1 21 -6 8 -9 23 -6 33 3 13 -1 21 -14 24 -10 3 -23 16 -28
30 -5 14 -15 28 -21 32 -5 3 -8 11 -5 16 4 5 -2 9 -12 9 -20 1 -63 33 -63 47
0 16 156 132 233 173 88 48 259 106 347 118 63 9 210 15 210 9z m710 -357
l-35 -31 42 21 43 20 50 -67 c52 -71 130 -214 130 -239 0 -15 -22 -22 -103
-34 -28 -4 -42 -8 -30 -9 12 0 25 -6 29 -12 7 -11 -65 -8 -126 6 -16 3 -11 -2
15 -15 31 -16 53 -20 96 -16 51 3 135 34 99 36 -13 0 -13 1 0 10 19 12 33 13
26 1 -4 -5 -1 -11 6 -13 19 -7 -1 -29 -46 -49 -94 -43 -219 -7 -281 79 -42 60
-48 159 -14 228 25 49 92 114 118 114 9 0 2 -11 -19 -30z m-154 -31 c48 -12
58 -35 20 -45 -22 -5 -23 -9 -13 -25 9 -15 8 -21 -7 -32 -13 -10 -15 -16 -8
-21 7 -4 12 -17 12 -28 0 -19 -4 -20 -57 -15 -58 5 -179 44 -169 54 5 5 102
-11 145 -23 9 -3 -2 5 -24 17 -26 14 -58 23 -91 23 l-51 1 40 35 c79 69 117
80 203 59z m6 -205 c-2 -10 -11 -27 -20 -37 -14 -16 -14 -17 9 -15 20 3 24 -1
22 -19 -2 -17 2 -23 18 -23 34 0 62 -34 57 -69 -4 -30 5 -41 17 -21 6 10 45
14 45 4 0 -3 -5 -14 -10 -25 -14 -25 -2 -24 26 2 24 23 64 19 64 -7 0 -19 10
-18 26 4 12 16 13 16 19 0 9 -24 21 -23 28 2 3 13 17 22 36 26 17 4 31 11 31
16 0 5 5 6 10 3 6 -3 10 1 10 9 0 9 4 16 8 16 11 0 31 -88 39 -166 5 -58 4
-63 -25 -95 l-31 -34 -2 75 c-1 53 -3 68 -9 50 -7 -23 -8 -22 -9 11 -1 43 -19
99 -32 99 -6 0 -5 -8 1 -19 15 -29 12 -108 -6 -147 -17 -35 -54 -74 -42 -44 3
8 9 24 13 35 l7 20 -17 -20 c-9 -11 -26 -41 -38 -67 -12 -26 -25 -47 -29 -48
-8 0 -68 118 -68 134 0 6 14 31 30 55 17 24 30 53 30 65 0 14 -7 8 -19 -21
-21 -46 -45 -65 -109 -87 -51 -18 -56 -6 -6 18 20 9 35 19 33 21 -6 5 -126
-33 -178 -56 l-43 -20 6 26 c27 109 60 156 136 198 18 10 30 20 27 23 -2 3
-20 -4 -38 -15 -26 -16 -50 -21 -99 -20 l-65 1 45 10 c25 5 49 13 53 17 13 12
-105 0 -140 -15 -18 -7 -33 -10 -33 -6 0 4 13 30 29 57 41 71 83 107 133 116
55 8 64 6 60 -17z m355 -356 c-3 -8 -6 -5 -6 6 -1 11 2 17 5 13 3 -3 4 -12 1
-19z m-1507 -217 c20 -38 13 -51 -30 -51 -43 0 -46 4 -30 44 11 31 45 35 60 7z
m1148 7 c7 -7 12 -22 12 -35 0 -20 -5 -23 -35 -23 -30 0 -35 3 -35 23 0 24 17
47 35 47 6 0 16 -5 23 -12z m-1040 -10 c7 -7 12 -25 12 -41 0 -22 -4 -28 -16
-23 -9 3 -21 6 -27 6 -7 0 -19 5 -27 10 -12 7 -11 13 10 34 27 29 31 31 48 14z
m932 -15 c23 -29 19 -35 -32 -47 -26 -6 -28 -4 -28 22 0 26 15 52 31 52 4 0
17 -12 29 -27z m-1149 -13 c23 -13 26 -40 4 -40 -8 0 -15 5 -15 10 0 6 -7 10
-15 10 -17 0 -20 -16 -4 -26 8 -4 8 -9 -1 -18 -13 -13 -30 8 -30 40 0 35 23
44 61 24z m1373 -6 c9 -23 -4 -64 -20 -64 -16 0 -19 16 -4 25 17 10 11 25 -10
25 -13 0 -18 -5 -14 -15 5 -11 2 -13 -10 -9 -21 8 -20 30 2 43 25 15 49 13 56
-5z m-1030 -10 c9 -23 -4 -64 -20 -64 -12 0 -33 9 -63 28 -3 1 6 13 19 27 27
28 55 32 64 9z m690 -5 c14 -11 24 -24 21 -29 -5 -8 -63 -40 -71 -40 -2 0 -6
15 -10 34 -10 58 13 72 60 35z m-596 -75 c4 -44 -19 -61 -52 -37 -30 21 -32
30 -9 55 26 29 57 19 61 -18z m507 16 c18 -20 18 -21 -5 -45 -13 -14 -29 -25
-36 -25 -14 0 -32 48 -26 73 5 23 44 22 67 -3z m-1018 -8 c10 -6 10 -15 1 -40
-15 -38 -32 -41 -54 -7 -13 20 -14 28 -4 40 14 16 38 19 57 7z m1522 -6 c14
-16 4 -43 -23 -65 -13 -11 -18 -7 -33 24 -15 31 -15 37 -3 45 22 14 46 12 59
-4z m-934 -80 c0 -40 -27 -56 -54 -32 -26 23 -27 42 -3 55 31 19 57 9 57 -23z
m346 24 c25 -14 24 -25 -3 -52 -23 -23 -50 -16 -56 16 -8 41 18 57 59 36z
m-963 -76 c-1 -19 -6 -37 -10 -40 -9 -6 -46 17 -52 33 -7 17 21 43 45 43 16 0
19 -6 17 -36z m1566 30 c21 -8 20 -33 -1 -56 -27 -30 -43 -22 -43 22 0 41 9
47 44 34z m-938 -51 c-10 -10 -19 5 -10 18 6 11 8 11 12 0 2 -7 1 -15 -2 -18z
m284 6 c0 -5 -4 -9 -10 -9 -5 0 -10 7 -10 16 0 8 5 12 10 9 6 -3 10 -10 10
-16z m-272 -78 c-3 -17 -39 -27 -64 -17 -13 5 -13 9 0 28 9 12 16 32 16 43 1
18 3 17 26 -9 14 -15 24 -36 22 -45z m312 -12 c0 -12 -37 -17 -54 -7 -22 12
-20 37 6 65 l22 23 13 -37 c7 -21 13 -41 13 -44z m-954 -4 c8 -43 3 -49 -29
-41 -34 8 -41 32 -17 56 28 28 38 25 46 -15z m1565 25 c28 -16 25 -58 -5 -66
-35 -8 -43 0 -38 40 4 38 12 42 43 26z m-1011 -63 c0 -12 -5 -29 -10 -37 -8
-13 -12 -13 -36 0 -38 21 -38 33 -1 50 38 19 47 16 47 -13z m455 13 c3 -5 1
-10 -4 -10 -6 0 -11 -7 -11 -15 0 -24 28 -17 33 8 3 20 4 21 12 3 9 -21 -19
-49 -45 -44 -21 4 -27 68 -6 68 8 0 18 -4 21 -10z m-1015 -44 c0 -8 -4 -18
-10 -21 -5 -3 -10 3 -10 14 0 12 5 21 10 21 6 0 10 -6 10 -14z m469 -8 c15
-41 -13 -67 -50 -48 -25 14 -24 28 4 51 29 24 36 24 46 -3z m645 1 c33 -26 33
-33 -1 -48 -35 -16 -57 4 -47 42 8 32 13 33 48 6z m450 6 c-4 -8 -10 -15 -15
-15 -5 0 -9 7 -9 15 0 8 7 15 15 15 9 0 12 -6 9 -15z m-36 -44 c-3 -28 -31
-39 -57 -22 -12 7 -10 14 10 39 28 34 52 26 47 -17z m-1468 13 c21 -21 22 -27
10 -34 -40 -25 -78 -1 -65 41 9 26 27 24 55 -7z m1153 -76 c-23 -25 -57 -20
-61 10 -7 46 4 54 43 31 34 -21 35 -22 18 -41z m-825 20 c-4 -40 -35 -49 -62
-19 -17 19 -17 20 11 35 44 24 55 20 51 -16z m-217 -11 c-1 -4 -1 -11 -1 -17
0 -18 -40 -32 -56 -19 -14 11 -19 50 -8 62 7 7 66 -17 65 -26z m1265 -12 c-4
-14 -14 -29 -22 -32 -19 -7 -59 30 -50 46 11 18 23 13 30 -11 4 -18 8 -20 17
-11 9 9 9 15 0 27 -9 11 -9 15 1 19 21 7 31 -9 24 -38z m-1158 -6 c-2 -12 -11
-27 -21 -33 -15 -9 -22 -7 -38 13 -28 34 -24 41 22 41 36 0 40 -3 37 -21z
m1052 10 c0 -20 -21 -49 -35 -49 -16 0 -46 40 -39 52 8 12 74 10 74 -3z m-821
-86 c0 -16 -3 -22 -6 -13 -3 8 -10 21 -16 28 -7 8 -5 12 7 12 11 0 16 -8 15
-27z m541 18 c0 -6 -4 -13 -10 -16 -5 -3 -10 1 -10 9 0 9 5 16 10 16 6 0 10
-4 10 -9z m-1058 -23 c43 -13 82 -55 93 -101 10 -40 -3 -97 -22 -97 -10 0 -13
5 -8 18 26 68 7 129 -48 155 -19 9 -44 17 -56 17 -12 0 -21 5 -21 10 0 13 14
13 62 -2z m1613 2 c-3 -5 -15 -10 -26 -10 -67 0 -115 -65 -105 -142 6 -46 -5
-66 -18 -32 -19 50 6 130 50 161 40 28 113 45 99 23z m-1582 -60 c40 -44 33
-58 -7 -15 -33 35 -37 36 -80 30 -30 -5 -46 -4 -46 3 0 15 29 21 70 17 23 -3
44 -15 63 -35z m1608 29 c29 -15 14 -30 -18 -18 -36 13 -69 4 -99 -28 -25 -27
-33 -20 -10 9 16 22 65 48 89 48 10 0 27 -5 38 -11z m-1622 -55 c21 -27 28
-69 13 -78 -9 -5 -102 71 -102 84 0 8 21 15 57 19 6 0 21 -11 32 -25z m1604 6
c4 -3 -15 -25 -42 -48 -26 -23 -51 -38 -55 -35 -13 13 -5 51 15 77 16 21 26
25 47 20 15 -4 30 -10 35 -14z m-1499 -282 c9 -19 44 -65 77 -103 70 -79 81
-101 74 -158 -5 -41 -5 -41 5 -9 11 35 35 51 51 35 6 -6 2 -16 -11 -28 -14
-13 -20 -29 -19 -59 1 -26 3 -32 6 -16 7 45 25 80 41 80 12 0 13 -3 4 -12 -7
-7 -11 -32 -11 -57 1 -26 3 -35 6 -21 8 56 14 71 25 68 8 -3 12 -32 13 -81 0
-45 5 -81 12 -88 9 -9 10 -4 1 23 -11 38 -4 107 12 110 32 4 34 1 36 -71 1
-53 6 -78 18 -90 16 -15 16 -14 7 12 -15 38 -14 110 1 125 17 17 65 15 72 -3
3 -8 3 -22 0 -30 -9 -23 5 -100 21 -121 14 -17 14 -17 5 9 -5 16 -10 51 -10
78 0 43 3 51 26 61 40 19 59 1 61 -61 2 -40 -2 -59 -19 -82 -12 -16 -28 -29
-35 -29 -8 0 -12 -4 -8 -10 3 -5 12 -7 19 -4 8 3 16 -5 20 -20 3 -14 11 -26
18 -26 6 0 -1 -9 -16 -21 -37 -29 -36 -83 3 -136 32 -45 132 -133 150 -133 21
0 132 103 157 146 13 22 24 53 24 67 0 28 -31 67 -52 67 -7 0 -3 7 9 15 14 10
20 22 16 31 -5 13 -1 15 15 10 17 -6 24 0 38 26 l17 32 23 -29 c23 -29 24 -29
41 -10 12 13 13 15 2 7 -13 -9 -19 -7 -36 11 -16 19 -20 37 -19 93 1 67 2 69
27 72 52 6 69 -37 50 -121 -7 -30 -7 -36 4 -27 16 13 25 94 15 131 -6 21 -4
29 7 33 32 13 45 -15 41 -81 -3 -40 0 -59 6 -53 15 15 20 118 7 134 -9 10 -8
16 4 26 19 16 22 13 34 -36 l10 -39 -3 40 c-2 22 -7 49 -12 60 -7 20 -7 20 14
1 27 -23 39 -75 21 -88 -11 -8 -11 -9 1 -5 24 6 24 56 1 88 -13 18 -17 30 -10
34 18 12 38 -3 49 -37 10 -32 10 -32 5 9 -7 56 4 80 71 154 31 35 67 86 80
113 l23 49 3 -34 4 -34 12 25 c12 25 12 25 7 -5 -6 -28 -5 -29 8 -11 8 10 17
15 20 10 11 -18 -22 -156 -48 -200 -26 -44 -67 -66 -86 -47 -6 6 -1 9 13 9 21
-1 23 3 21 39 -1 22 -2 43 -2 48 -1 4 -12 7 -25 7 -29 0 -56 -34 -56 -70 0
-31 26 -70 46 -70 18 0 18 4 -11 -54 -30 -59 -31 -76 -7 -106 13 -16 24 -21
40 -16 22 7 38 39 27 56 -10 15 -35 12 -35 -5 0 -8 -4 -15 -10 -15 -13 0 -13
4 5 48 9 20 31 53 49 72 19 19 41 49 49 65 l16 30 1 -66 c0 -117 -36 -254 -82
-303 -10 -11 -18 -25 -18 -30 0 -6 7 -3 14 7 22 28 27 19 11 -20 -44 -106
-170 -216 -294 -256 -252 -83 -639 -62 -805 43 -69 44 -150 128 -180 188 -30
59 -32 69 -11 52 22 -18 18 -6 -10 36 -14 21 -33 63 -42 93 -18 64 -32 226
-21 244 5 8 8 7 8 -3 0 -9 22 -42 50 -75 46 -54 72 -116 56 -132 -3 -4 -6 3
-6 15 0 15 -6 22 -20 22 -31 0 -27 -47 5 -62 54 -24 74 51 34 127 -14 26 -17
41 -10 43 38 13 54 78 31 123 -10 18 -59 28 -61 12 -10 -78 -8 -92 14 -96 22
-4 22 -4 -1 -6 -34 -2 -79 51 -97 113 -18 62 -23 135 -10 135 5 0 12 8 16 18
7 16 8 16 8 1 1 -9 5 -19 10 -22 5 -3 7 24 5 62 -3 62 -3 63 5 21 5 -26 16
-62 25 -81z m74 -196 c2 -7 -2 -10 -12 -6 -9 3 -16 11 -16 16 0 13 23 5 28
-10z m1174 -4 c-7 -7 -12 -8 -12 -2 0 14 12 26 19 19 2 -3 -1 -11 -7 -17z
m-398 -144 c22 -9 30 -68 16 -120 -16 -58 -28 -64 -57 -28 -17 22 -23 42 -23
80 0 65 19 85 64 68z m-213 -26 c14 -22 10 -77 -8 -106 l-17 -27 23 20 23 20
19 -24 c22 -27 25 -15 4 13 -8 11 -15 39 -15 63 0 41 1 43 41 53 66 18 84 -11
55 -93 -12 -33 -12 -36 1 -25 12 9 16 9 24 -3 15 -24 10 -30 -20 -24 -23 4
-31 1 -36 -15 -7 -23 2 -60 16 -60 20 0 7 -16 -26 -34 -19 -11 -35 -22 -35
-25 0 -3 -7 -14 -15 -25 -13 -18 -15 -17 -41 13 -14 17 -40 39 -58 48 -23 13
-27 18 -14 21 20 4 31 32 22 56 -6 15 -20 20 -51 19 -15 -1 -15 0 -7 21 5 12
10 13 26 5 19 -10 19 -9 4 20 -17 31 -21 92 -8 105 11 12 84 -1 93 -16z m-96
-256 c-33 -6 -37 -18 -21 -58 l16 -39 -20 24 c-36 42 -15 100 29 83 13 -5 12
-7 -4 -10z m263 -17 c1 -11 -4 -29 -13 -40 -14 -19 -15 -18 -5 8 13 35 5 50
-22 41 -14 -4 -18 -3 -13 6 11 18 50 7 53 -15z"/>
<path d="M4408 6150 c-9 -6 -46 -19 -81 -30 -79 -25 -137 -70 -167 -130 -24
-49 -22 -48 34 23 36 45 99 86 156 101 14 4 2 -5 -27 -19 -75 -37 -88 -61 -17
-29 66 28 134 72 134 85 0 11 -11 11 -32 -1z"/>
<path d="M4412 6066 c-20 -54 -84 -128 -133 -154 -43 -23 -43 -24 -10 -18 18
3 40 6 48 6 8 0 12 4 9 8 -3 5 10 24 29 42 33 32 79 122 73 141 -2 6 -9 -6
-16 -25z"/>
<path d="M4724 6045 c-4 -9 -2 -21 4 -27 15 -15 44 -1 40 19 -4 23 -36 29 -44
8z"/>
<path d="M4777 5993 c-24 -38 -65 -105 -91 -150 l-47 -81 54 -89 c81 -132 127
-203 133 -203 5 0 -58 122 -127 245 l-28 50 50 90 c67 118 111 205 104 205 -3
0 -25 -30 -48 -67z"/>
<path d="M4870 6055 c0 -6 32 -66 70 -135 76 -134 88 -163 72 -183 -20 -25
-143 -259 -139 -264 7 -6 170 257 175 283 2 13 -22 64 -68 140 -76 127 -109
175 -110 159z"/>
<path d="M4934 6045 c-4 -9 -2 -21 4 -27 15 -15 44 -1 40 19 -4 23 -36 29 -44
8z"/>
<path d="M4687 5997 c-3 -8 -2 -20 3 -27 11 -18 42 -4 38 17 -4 22 -34 29 -41
10z"/>
<path d="M4966 5994 c-4 -10 -2 -22 3 -27 14 -14 43 0 39 20 -4 24 -34 28 -42
7z"/>
<path d="M4778 5917 c-25 -39 -56 -88 -67 -108 l-21 -35 67 -107 c37 -59 71
-107 76 -107 4 0 -17 48 -47 107 l-55 108 55 107 c30 60 51 108 47 108 -4 0
-29 -33 -55 -73z"/>
<path d="M4876 5955 c8 -19 30 -64 49 -100 19 -35 35 -71 35 -79 0 -9 -16 -44
-35 -78 -39 -72 -68 -138 -60 -138 10 0 135 198 135 214 0 16 -124 216 -134
216 -3 0 2 -16 10 -35z"/>
<path d="M4660 5931 c0 -27 19 -36 37 -18 18 18 9 37 -18 37 -12 0 -19 -7 -19
-19z"/>
<path d="M4990 5931 c0 -11 6 -21 13 -24 20 -7 37 4 37 24 0 14 -7 19 -25 19
-18 0 -25 -5 -25 -19z"/>
<path d="M4884 5863 c14 -28 31 -55 37 -58 12 -8 -22 61 -46 90 -9 11 -4 -3 9
-32z"/>
<path d="M4803 5868 c-21 -36 -34 -68 -29 -68 8 0 58 92 53 96 -2 3 -13 -10
-24 -28z"/>
<path d="M4350 5697 c0 -2 18 -23 40 -46 58 -61 106 -163 57 -123 -7 6 -33 14
-57 17 -25 3 -58 8 -73 10 -16 3 -25 1 -22 -5 3 -5 27 -12 53 -16 26 -3 61
-12 77 -19 57 -24 68 -26 62 -11 -3 8 -11 32 -18 55 -13 43 -67 114 -100 131
-10 6 -19 9 -19 7z"/>
<path d="M3884 5592 c3 -6 0 -12 -6 -15 -7 -2 14 -12 46 -22 65 -19 129 -15
174 10 l27 16 -29 -6 c-48 -10 -129 -12 -161 -5 -26 7 -23 8 19 9 63 1 57 7
-18 16 -38 4 -56 3 -52 -3z"/>
<path d="M4693 5579 c-15 -15 -5 -39 17 -39 22 0 32 24 17 39 -6 6 -14 11 -17
11 -3 0 -11 -5 -17 -11z"/>
<path d="M4971 5576 c-16 -19 -6 -36 20 -36 15 0 20 6 17 22 -4 27 -21 33 -37
14z"/>
<path d="M4200 5545 c8 -10 29 -24 47 -32 38 -15 187 -18 163 -3 -8 5 -43 10
-78 10 -44 0 -75 6 -105 21 -36 19 -40 19 -27 4z"/>
<path d="M4722 5508 c2 -15 10 -23 23 -23 30 0 27 39 -3 43 -20 3 -23 0 -20
-20z"/>
<path d="M4934 5515 c-4 -9 -2 -21 4 -27 15 -15 44 -1 40 19 -4 23 -36 29 -44
8z"/>
<path d="M4309 5460 c11 -19 26 -61 34 -92 15 -56 14 -57 -4 -48 -30 17 -189
67 -189 60 0 -4 15 -14 33 -23 25 -12 28 -16 12 -16 -40 -2 -109 42 -132 84
-13 22 -23 33 -23 25 0 -9 12 -34 26 -56 31 -48 77 -68 197 -84 43 -5 87 -14
97 -20 27 -15 31 -13 20 13 -5 12 -16 48 -25 79 -8 32 -27 70 -40 85 l-26 28
20 -35z"/>
<path d="M3896 5458 c-20 -77 1 -145 69 -217 25 -27 47 -59 48 -70 2 -26 7
-20 51 53 22 37 36 72 35 90 l-1 31 -7 -30 c-8 -34 -52 -115 -63 -115 -4 0
-10 10 -14 22 -7 25 -64 117 -64 106 0 -4 5 -19 10 -34 10 -24 9 -26 -5 -14
-38 32 -61 115 -46 168 5 17 6 32 1 32 -4 0 -10 -10 -14 -22z"/>
<path d="M4672 5473 c-9 -3 -2 -13 21 -29 49 -33 81 -103 73 -157 -4 -22 -16
-57 -27 -77 l-21 -35 32 35 c29 32 31 33 25 10 -4 -14 -10 -31 -12 -37 -3 -7
-3 -13 0 -13 3 0 14 20 26 45 40 86 22 178 -48 235 -36 30 -45 33 -69 23z"/>
<path d="M4946 5438 c-47 -47 -71 -107 -61 -155 9 -41 37 -103 46 -103 4 0 1
17 -7 38 l-16 37 31 -35 31 -35 -20 45 c-37 85 -18 159 53 211 22 16 35 29 29
29 -6 0 -18 3 -26 6 -11 4 -31 -8 -60 -38z"/>
<path d="M4579 5429 c-32 -32 -11 -46 42 -29 41 14 42 13 65 -14 57 -66 -1
-181 -98 -193 l-43 -6 23 25 c29 32 29 81 0 108 -26 24 -73 27 -82 4 -11 -29
-6 -35 32 -32 31 3 37 0 40 -18 4 -31 -29 -55 -79 -56 -24 0 -100 2 -169 5
-101 5 -111 4 -54 -3 39 -5 101 -20 137 -34 37 -14 101 -30 144 -36 87 -12
159 -43 181 -78 15 -23 14 -23 -12 -16 -24 6 -27 4 -24 -12 2 -14 12 -19 33
-19 58 0 39 76 -29 116 l-33 19 43 44 c51 54 65 111 40 169 -28 67 -115 98
-157 56z"/>
<path d="M5009 5427 c-81 -55 -79 -161 5 -234 l36 -32 -27 -15 c-47 -24 -75
-61 -71 -92 2 -22 9 -30 27 -32 13 -2 28 2 32 10 14 22 10 31 -11 25 -31 -8
-32 7 -2 36 35 34 63 43 161 57 45 6 111 22 147 36 37 14 99 29 138 33 l71 8
-78 2 c-43 0 -108 -4 -145 -9 -94 -15 -147 2 -147 45 0 27 3 30 34 30 38 0 50
15 27 34 -27 23 -69 9 -88 -28 -18 -37 -11 -73 20 -98 15 -13 12 -14 -28 -9
-36 4 -52 13 -82 45 -47 50 -52 104 -15 147 22 25 26 26 57 16 47 -17 60 -15
60 8 0 43 -68 53 -121 17z"/>
<path d="M3871 5344 c0 -34 -3 -77 -6 -95 -5 -33 -5 -32 15 10 16 35 19 51 11
70 -6 14 -12 37 -14 51 -2 14 -5 -3 -6 -36z"/>
<path d="M4634 5365 c-4 -9 -2 -21 4 -27 15 -15 44 -1 40 19 -4 23 -36 29 -44
8z"/>
<path d="M5017 5366 c-6 -16 11 -36 30 -36 7 0 13 11 13 25 0 18 -5 25 -19 25
-10 0 -21 -6 -24 -14z"/>
<path d="M4643 5309 c-16 -16 -5 -39 19 -39 14 0 19 6 16 22 -4 25 -19 33 -35
17z"/>
<path d="M5016 5311 c-10 -16 5 -42 23 -39 21 4 21 42 -1 46 -9 2 -19 -1 -22
-7z"/>
<path d="M4152 5180 c-18 -30 1 -62 35 -58 34 4 52 32 37 56 -16 25 -56 27
-72 2z"/>
<path d="M5482 5188 c-30 -30 0 -75 42 -64 31 8 38 28 20 55 -17 23 -44 27
-62 9z"/>
<path d="M4916 5109 c-14 -17 -26 -37 -26 -44 0 -48 50 -99 73 -76 8 8 6 11
-6 11 -37 0 -46 82 -11 111 8 6 14 15 14 20 0 18 -19 8 -44 -22z"/>
<path d="M4755 5113 c23 -52 13 -86 -30 -111 -19 -10 -18 -11 5 -8 38 3 48 13
59 52 10 38 0 68 -27 79 -10 4 -12 0 -7 -12z"/>
<path d="M4736 4699 c-35 -41 -79 -128 -81 -158 -1 -23 0 -23 24 5 14 17 22
21 18 11 -20 -52 -39 -148 -40 -192 0 -76 32 -125 81 -125 63 1 92 65 92 204
0 88 10 129 27 112 4 -4 10 -60 13 -124 6 -143 24 -185 81 -190 27 -2 40 3 59
23 40 43 39 122 -5 285 -7 24 -6 23 15 -5 19 -26 21 -27 15 -6 -5 17 -4 21 5
16 14 -8 -44 96 -78 143 -34 45 -48 40 -17 -5 36 -54 31 -60 -13 -13 -34 35
-45 40 -82 40 -38 0 -48 -5 -86 -45 -43 -44 -48 -35 -11 18 27 40 15 44 -17 6z"/>
<path d="M4626 4418 c-8 -33 -7 -71 3 -87 6 -9 10 7 13 47 3 62 -4 81 -16 40z"/>
<path d="M5054 4418 c3 -13 6 -39 6 -58 1 -30 2 -32 10 -13 11 26 2 93 -12 93
-6 0 -8 -10 -4 -22z"/>
<path d="M4798 4245 c-39 -59 -35 -73 7 -27 24 26 42 68 33 77 -2 3 -20 -20
-40 -50z"/>
<path d="M4860 4285 c0 -28 47 -95 67 -95 14 0 13 3 -4 23 -12 12 -30 38 -42
57 -16 27 -21 30 -21 15z"/>
<path d="M4645 4240 c-4 -7 2 -14 14 -17 12 -3 21 -9 21 -14 0 -5 7 -9 15 -9
21 0 19 26 -2 34 -10 3 -23 8 -30 12 -6 3 -14 0 -18 -6z"/>
<path d="M5013 4236 c-26 -12 -31 -36 -8 -36 8 0 15 5 15 10 0 6 7 10 15 10 8
0 15 7 15 15 0 17 -6 17 -37 1z"/>
<path d="M4436 4204 c-12 -31 48 -99 78 -88 35 13 34 89 -1 89 -12 0 -25 3
-29 8 -13 13 -42 8 -48 -9z"/>
<path d="M5206 4213 c-4 -4 -14 -8 -23 -8 -26 0 -39 -30 -25 -60 18 -39 39
-42 73 -9 35 34 37 77 4 82 -12 2 -24 -1 -29 -5z"/>
<path d="M4808 4180 c-11 -36 -10 -94 2 -126 6 -15 12 -25 13 -23 2 2 0 42 -3
89 -3 59 -7 77 -12 60z"/>
<path d="M4871 4110 c0 -51 3 -69 9 -55 5 11 9 36 9 55 0 19 -4 44 -9 55 -6
14 -9 -4 -9 -55z"/>
<path d="M4467 4074 c-9 -10 2 -24 19 -24 8 0 14 7 14 15 0 15 -21 21 -33 9z"/>
<path d="M4541 4071 c-15 -10 -8 -41 9 -41 15 0 25 29 14 40 -5 5 -15 5 -23 1z"/>
<path d="M4700 4065 c-31 -38 27 -83 62 -47 16 16 18 23 9 41 -13 24 -53 28
-71 6z"/>
<path d="M4929 4064 c-14 -17 -5 -40 24 -58 13 -8 22 -6 38 10 17 18 19 25 10
43 -14 25 -53 28 -72 5z"/>
<path d="M5200 4065 c0 -8 7 -15 15 -15 8 0 15 7 15 15 0 8 -7 15 -15 15 -8 0
-15 -7 -15 -15z"/>
<path d="M4593 4054 c-6 -17 14 -36 32 -31 6 2 11 13 13 25 3 17 -2 22 -18 22
-11 0 -23 -7 -27 -16z"/>
<path d="M5060 4051 c0 -27 19 -36 37 -18 18 18 9 37 -18 37 -12 0 -19 -7 -19
-19z"/>
<path d="M5132 4053 c2 -10 10 -18 18 -18 8 0 16 8 18 18 2 12 -3 17 -18 17
-15 0 -20 -5 -18 -17z"/>
<path d="M4660 4025 c0 -7 50 -55 57 -55 4 0 -6 14 -22 30 -28 30 -35 34 -35
25z"/>
<path d="M4800 4005 c7 -9 15 -13 17 -11 7 7 -7 26 -19 26 -6 0 -6 -6 2 -15z"/>
<path d="M4882 4008 c-7 -7 -12 -17 -12 -22 0 -6 6 -4 13 5 7 9 19 18 27 22
13 5 13 6 0 6 -9 1 -21 -4 -28 -11z"/>
<path d="M4994 3989 c-20 -22 -23 -28 -8 -19 18 11 50 50 41 50 -2 0 -16 -14
-33 -31z"/>
<path d="M5095 4000 c-3 -5 -1 -10 4 -10 6 0 11 5 11 10 0 6 -2 10 -4 10 -3 0
-8 -4 -11 -10z"/>
<path d="M4257 5095 c-7 -16 8 -29 23 -20 10 6 2 35 -10 35 -4 0 -10 -7 -13
-15z"/>
<path d="M5415 5100 c-7 -12 2 -30 16 -30 5 0 9 9 9 20 0 21 -15 27 -25 10z"/>
<path d="M4372 5078 c6 -18 28 -21 28 -4 0 9 -7 16 -16 16 -9 0 -14 -5 -12
-12z"/>
<path d="M5300 5074 c0 -17 22 -14 28 4 2 7 -3 12 -12 12 -9 0 -16 -7 -16 -16z"/>
<path d="M4490 5050 c-12 -7 -12 -12 -2 -22 14 -14 35 1 24 19 -5 8 -13 9 -22
3z"/>
<path d="M5180 5042 c0 -14 11 -21 26 -15 21 8 17 23 -6 23 -11 0 -20 -4 -20
-8z"/>
<path d="M4575 4981 c-7 -12 12 -24 25 -16 11 7 4 25 -10 25 -5 0 -11 -4 -15
-9z"/>
<path d="M5090 4975 c0 -10 7 -15 18 -13 21 4 19 22 -2 26 -10 2 -16 -3 -16
-13z"/>
<path d="M4075 4971 c-7 -12 12 -24 25 -16 11 7 4 25 -10 25 -5 0 -11 -4 -15
-9z"/>
<path d="M5597 4973 c-12 -11 -8 -23 8 -23 8 0 15 7 15 15 0 16 -12 20 -23 8z"/>
<path d="M4660 4906 c0 -9 7 -16 16 -16 9 0 14 5 12 12 -6 18 -28 21 -28 4z"/>
<path d="M5010 4905 c0 -8 7 -15 15 -15 8 0 15 7 15 15 0 8 -7 15 -15 15 -8 0
-15 -7 -15 -15z"/>
<path d="M4047 4864 c-13 -13 -7 -24 14 -24 11 0 19 5 17 12 -5 14 -22 21 -31
12z"/>
<path d="M5627 4863 c-12 -11 -8 -23 8 -23 8 0 15 7 15 15 0 16 -12 20 -23 8z"/>
<path d="M4680 4769 c0 -12 5 -19 12 -17 18 6 20 25 3 31 -10 5 -15 0 -15 -14z"/>
<path d="M4995 4780 c-4 -6 -3 -16 3 -22 6 -6 12 -6 17 2 4 6 3 16 -3 22 -6 6
-12 6 -17 -2z"/>
<path d="M4042 4738 c5 -15 28 -18 29 -3 0 6 -7 12 -17 13 -10 3 -15 -1 -12
-10z"/>
<path d="M5620 4735 c0 -10 7 -15 18 -13 21 4 19 22 -2 26 -10 2 -16 -3 -16
-13z"/>
<path d="M4590 4694 c0 -9 5 -14 12 -12 18 6 21 28 4 28 -9 0 -16 -7 -16 -16z"/>
<path d="M4505 4651 c-7 -12 12 -24 25 -16 11 7 4 25 -10 25 -5 0 -11 -4 -15
-9z"/>
<path d="M5162 4648 c6 -18 28 -21 28 -4 0 9 -7 16 -16 16 -9 0 -14 -5 -12
-12z"/>
<path d="M5576 4643 c-11 -11 -6 -23 9 -23 8 0 15 4 15 9 0 13 -16 22 -24 14z"/>
<path d="M4100 4636 c0 -9 7 -16 16 -16 17 0 14 22 -4 28 -7 2 -12 -3 -12 -12z"/>
<path d="M5250 4586 c0 -9 7 -16 16 -16 9 0 14 5 12 12 -6 18 -28 21 -28 4z"/>
<path d="M4420 4585 c0 -8 7 -15 15 -15 8 0 15 7 15 15 0 8 -7 15 -15 15 -8 0
-15 -7 -15 -15z"/>
<path d="M4204 4576 c-8 -22 3 -33 18 -18 9 9 9 15 0 24 -9 9 -13 7 -18 -6z"/>
<path d="M4307 4564 c-9 -10 2 -24 19 -24 8 0 14 7 14 15 0 15 -21 21 -33 9z"/>
<path d="M5360 4555 c0 -8 7 -15 15 -15 8 0 15 7 15 15 0 8 -7 15 -15 15 -8 0
-15 -7 -15 -15z"/>
<path d="M5340 3780 c0 -5 5 -10 10 -10 6 0 10 5 10 10 0 6 -4 10 -10 10 -5 0
-10 -4 -10 -10z"/>
<path d="M4370 3720 c0 -5 5 -10 10 -10 6 0 10 5 10 10 0 6 -4 10 -10 10 -5 0
-10 -4 -10 -10z"/>
<path d="M5310 3719 c0 -5 5 -7 10 -4 6 3 10 8 10 11 0 2 -4 4 -10 4 -5 0 -10
-5 -10 -11z"/>
<path d="M4414 3679 c-10 -17 13 -36 27 -22 12 12 4 33 -11 33 -5 0 -12 -5
-16 -11z"/>
<path d="M5256 3683 c-12 -12 -6 -33 9 -33 8 0 15 6 15 14 0 17 -14 28 -24 19z"/>
<path d="M4250 3635 c-13 -34 6 -80 51 -121 49 -45 103 -71 199 -94 92 -22
148 -57 164 -103 14 -38 -2 -47 -26 -14 -21 29 -48 36 -48 13 0 -21 50 -57 74
-54 43 6 32 70 -20 128 -31 34 -50 44 -123 65 -110 33 -160 56 -205 95 -35 31
-47 60 -25 60 17 0 5 45 -13 48 -12 2 -21 -6 -28 -23z"/>
<path d="M5407 3653 c-11 -10 -8 -43 3 -43 20 0 9 -28 -24 -58 -46 -41 -97
-66 -183 -87 -85 -20 -152 -61 -177 -107 -22 -40 -18 -91 6 -96 22 -4 78 34
78 54 0 24 -40 16 -52 -11 -13 -30 -28 -33 -28 -6 0 22 42 76 71 92 16 8 163
48 180 49 3 0 5 -10 5 -22 -1 -27 31 -37 41 -12 4 10 0 22 -11 30 -16 11 -15
14 16 29 66 34 118 98 118 148 0 33 -26 57 -43 40z"/>
<path d="M5198 3643 c7 -3 16 -2 19 1 4 3 -2 6 -13 5 -11 0 -14 -3 -6 -6z"/>
<path d="M4597 3625 c-4 -8 -13 -15 -22 -15 -8 0 -15 -4 -15 -10 0 -5 4 -10 8
-10 12 0 46 39 40 45 -3 3 -8 -1 -11 -10z"/>
<path d="M4507 3614 c-14 -15 -6 -34 14 -34 14 0 19 5 17 17 -3 18 -20 27 -31
17z"/>
<path d="M5167 3614 c-14 -15 -6 -34 14 -34 14 0 19 5 17 17 -3 18 -20 27 -31
17z"/>
<path d="M4595 3580 c-9 -15 14 -40 31 -33 22 8 18 43 -5 43 -11 0 -23 -5 -26
-10z"/>
<path d="M5055 3580 c-9 -15 14 -40 31 -33 22 8 18 43 -5 43 -11 0 -23 -5 -26
-10z"/>
<path d="M4374 3426 c-7 -19 3 -36 22 -36 10 0 14 8 12 22 -4 26 -26 36 -34
14z"/>
<path d="M4424 3399 c-3 -6 0 -17 7 -25 18 -17 44 -2 36 20 -7 18 -33 21 -43
5z"/>
<path d="M5230 3391 c0 -27 19 -36 37 -18 18 18 9 37 -18 37 -12 0 -19 -7 -19
-19z"/>
<path d="M2440 4981 c0 -5 5 -22 10 -37 14 -36 -3 -55 -22 -25 -13 21 -58 30
-58 11 0 -5 7 -10 15 -10 20 0 19 -20 -2 -36 -16 -12 -16 -13 -1 -14 9 0 25
-19 38 -44 20 -43 20 -46 4 -71 -24 -37 -31 -153 -10 -192 19 -39 69 -70 123
-79 33 -5 49 -2 76 15 30 18 50 21 146 21 72 0 110 4 106 10 -3 6 -53 10 -113
10 -89 0 -112 -3 -140 -20 -39 -24 -52 -25 -52 -5 0 8 -4 15 -10 15 -5 0 -10
-4 -10 -10 0 -5 -12 -10 -26 -10 -51 0 -120 96 -81 114 10 5 10 7 0 12 -26 12
-6 107 27 124 26 14 30 4 30 -80 0 -73 1 -76 29 -93 20 -11 51 -17 95 -17 65
0 66 0 66 28 -1 24 -2 25 -14 10 -17 -22 -99 -24 -136 -3 -29 16 -26 17 58 15
36 -1 62 3 62 9 0 6 -32 11 -72 13 -57 2 -73 6 -73 18 0 9 13 17 35 21 l35 6
-32 2 c-18 0 -33 4 -34 9 0 4 -2 17 -3 30 -2 12 3 27 9 32 13 11 45 3 45 -10
0 -14 66 -31 93 -25 14 4 33 15 43 26 15 17 32 19 174 19 126 0 159 -3 163
-14 3 -8 3 -17 0 -20 -4 -3 -72 -6 -153 -6 -176 0 -180 -2 -180 -98 l0 -62
168 0 c149 -1 165 -2 148 -15 -11 -8 -30 -15 -42 -15 -13 0 -26 -4 -29 -10
-14 -23 64 -10 94 16 40 33 39 44 -4 44 -24 0 -35 5 -35 15 0 8 -4 15 -10 15
-5 0 -10 -7 -10 -15 0 -9 -9 -15 -25 -15 -20 0 -25 5 -25 25 0 14 -4 25 -10
25 -5 0 -10 -12 -10 -26 0 -19 -4 -25 -17 -22 -11 2 -18 12 -17 26 1 29 -14
29 -18 0 -2 -13 -10 -23 -18 -23 -8 0 -16 10 -18 23 -2 12 -7 22 -11 22 -4 0
-7 -10 -7 -22 1 -14 -5 -23 -14 -23 -8 0 -16 10 -18 23 -5 30 -22 28 -22 -3 0
-24 -29 -38 -31 -15 -6 80 6 110 47 110 17 0 24 -6 24 -20 0 -11 5 -20 10 -20
6 0 10 9 10 20 0 11 7 20 15 20 9 0 15 -9 15 -25 0 -14 5 -25 10 -25 6 0 10
11 10 25 0 16 6 25 15 25 9 0 15 -9 15 -25 0 -14 5 -25 10 -25 6 0 10 11 10
25 0 16 6 25 15 25 9 0 15 -9 15 -25 0 -14 5 -25 10 -25 6 0 10 11 10 25 0 18
5 25 20 25 16 0 20 -7 20 -36 0 -28 3 -35 17 -32 33 6 47 193 17 222 -16 16
-45 9 -59 -14 -9 -14 -255 -13 -255 0 0 6 -11 22 -25 35 -26 27 -80 34 -116
15 -17 -10 -19 -7 -19 30 0 41 -17 59 -41 45 -8 -6 -7 -10 5 -17 15 -9 22 -39
11 -50 -3 -3 -16 -3 -30 0 -17 3 -28 15 -35 38 -11 33 -30 55 -30 35z m242
-109 c10 -8 20 -23 23 -33 6 -17 18 -19 139 -19 107 0 136 3 146 15 15 18 40
20 41 3 0 -7 2 -21 4 -30 3 -17 -10 -18 -164 -18 -153 0 -168 -2 -183 -20 -25
-28 -61 -34 -97 -16 -55 29 -54 107 2 131 35 15 62 11 89 -13z m-142 -7 c0
-24 -3 -25 -54 -25 -40 0 -55 4 -60 16 -12 30 -6 34 54 34 57 0 60 -1 60 -25z
m-10 -65 c0 -15 -7 -20 -28 -20 -16 0 -37 9 -47 20 -18 20 -17 20 28 20 40 0
47 -3 47 -20z"/>
<path d="M2622 4853 c-22 -8 -34 -41 -22 -63 16 -30 68 -27 76 4 3 14 3 30 -1
35 -9 16 -38 29 -53 24z m36 -41 c3 -16 -2 -22 -17 -22 -26 0 -36 17 -20 36
16 19 33 13 37 -14z"/>
<path d="M7255 4968 c-13 -44 -33 -67 -55 -61 -21 5 -30 53 -10 53 6 0 10 5
10 10 0 6 -9 10 -20 10 -17 0 -20 -7 -20 -46 0 -40 -2 -45 -17 -38 -10 4 -37
9 -59 12 -38 3 -44 1 -70 -32 l-29 -36 -118 0 c-92 0 -122 3 -133 15 -21 21
-51 19 -64 -4 -13 -25 -13 -128 0 -136 6 -3 10 -22 10 -41 0 -28 4 -35 18 -32
11 2 17 13 17 33 1 20 6 31 18 33 12 3 17 -3 17 -22 0 -14 5 -26 10 -26 6 0
10 12 10 26 0 33 33 30 38 -4 2 -12 8 -22 13 -22 5 0 7 11 3 25 -5 21 -3 25
15 25 16 0 21 -6 21 -25 0 -14 5 -25 10 -25 6 0 10 11 10 25 0 16 6 25 15 25
8 0 15 -9 15 -20 0 -11 5 -20 10 -20 6 0 10 9 10 20 0 14 7 20 23 20 35 0 47
-19 47 -73 0 -41 -3 -48 -17 -45 -10 2 -18 10 -19 18 -2 31 -6 34 -13 10 -9
-31 -35 -33 -39 -2 -5 30 -22 28 -22 -3 0 -16 -6 -25 -15 -25 -9 0 -15 9 -15
25 0 14 -4 25 -10 25 -5 0 -10 -11 -10 -25 0 -16 -6 -25 -15 -25 -9 0 -15 9
-15 25 0 14 -4 25 -10 25 -5 0 -10 -12 -10 -26 0 -22 -4 -25 -27 -22 -16 2
-27 8 -25 16 3 17 -15 15 -22 -3 -3 -9 -19 -15 -41 -15 -32 0 -34 -2 -23 -19
24 -38 118 -71 118 -41 0 6 -12 10 -26 10 -14 0 -35 6 -47 13 -18 10 5 13 148
17 l170 5 3 54 c3 44 -1 58 -19 77 -22 23 -28 24 -171 24 -137 0 -149 1 -146
18 3 15 20 17 156 20 144 2 154 1 183 -20 39 -29 96 -28 137 2 37 27 52 20 52
-25 0 -31 -3 -34 -32 -38 l-33 -4 33 -1 c25 -2 32 -6 32 -22 0 -18 -7 -20 -76
-20 -51 0 -73 -3 -69 -11 4 -6 32 -10 64 -9 76 2 79 1 57 -15 -29 -22 -125
-20 -133 2 -6 15 -7 14 -13 -3 -11 -30 -3 -34 62 -34 44 0 70 6 94 21 34 20
34 21 34 95 0 65 2 74 18 74 21 0 37 -29 47 -84 6 -31 5 -36 -11 -36 -18 -1
-18 -1 0 -15 19 -14 19 -16 3 -50 -21 -45 -78 -75 -108 -57 -16 10 -19 10 -19
-3 0 -20 -13 -19 -52 5 -28 17 -51 20 -140 20 -60 0 -110 -4 -113 -10 -4 -6
34 -10 105 -10 98 0 116 -3 142 -21 54 -39 159 -6 198 63 19 33 22 50 17 95
-3 30 -15 69 -25 87 l-20 34 21 45 c12 26 28 46 35 47 18 0 15 17 -5 25 -17 6
-17 7 0 19 22 17 22 26 -2 26 -10 0 -25 -10 -33 -22 -23 -34 -40 -14 -22 27
17 40 17 45 5 45 -5 0 -13 -10 -16 -22z m-127 -88 c30 -19 38 -37 33 -80 -1
-8 -14 -26 -28 -38 -31 -28 -74 -24 -108 8 -19 18 -35 20 -183 20 l-162 0 0
25 c0 32 28 45 45 22 10 -14 33 -17 143 -17 l130 0 22 34 c19 31 34 41 65 45
6 0 25 -8 43 -19z m164 4 c3 -3 4 -14 1 -25 -4 -16 -14 -19 -58 -19 -39 0 -54
4 -59 16 -3 9 -4 20 0 25 6 10 107 13 116 3z m-32 -85 c-14 -26 -73 -24 -78 4
-3 14 4 17 43 17 43 0 45 -1 35 -21z"/>
<path d="M7050 4840 c-24 -24 -24 -30 -7 -54 9 -12 23 -17 42 -14 24 2 31 8
33 29 3 25 -19 59 -39 59 -5 0 -18 -9 -29 -20z m48 -28 c3 -16 -2 -22 -17 -22
-26 0 -36 17 -20 36 16 19 33 13 37 -14z"/>
<path d="M5855 3258 c-27 -82 -33 -184 -14 -221 7 -12 26 -38 44 -58 46 -51
59 -98 52 -186 l-5 -73 28 0 c22 0 34 8 51 36 l22 36 -27 21 c-24 19 -26 26
-17 52 25 78 24 80 -29 116 -54 37 -56 40 -39 88 11 30 9 34 -20 59 l-32 27
30 48 31 48 -26 9 c-34 13 -44 13 -49 -2z m37 -23 c0 -5 -5 -11 -11 -13 -6 -2
-11 4 -11 13 0 9 5 15 11 13 6 -2 11 -8 11 -13z m-2 -146 c0 -5 -7 -9 -15 -9
-15 0 -20 12 -9 23 8 8 24 -1 24 -14z m78 -160 c-2 -6 -8 -10 -13 -10 -5 0
-11 4 -13 10 -2 6 4 11 13 11 9 0 15 -5 13 -11z m14 -154 c0 -5 -5 -11 -11
-13 -6 -2 -11 4 -11 13 0 9 5 15 11 13 6 -2 11 -8 11 -13z"/>
<path d="M3682 3247 c-4 -7 -35 -59 -67 -117 -110 -197 -167 -295 -176 -304
-16 -17 -10 -25 30 -46 43 -21 74 -17 67 9 -2 9 -7 35 -11 57 l-6 42 44 17
c31 12 44 22 41 33 -1 10 -5 36 -7 60 l-5 43 59 29 59 30 0 53 c0 28 3 62 6
73 6 24 -19 40 -34 21z m-2 -107 c0 -5 -7 -10 -16 -10 -8 0 -12 5 -9 10 3 6
10 10 16 10 5 0 9 -4 9 -10z m-100 -180 c0 -5 -4 -10 -10 -10 -5 0 -10 5 -10
10 0 6 5 10 10 10 6 0 10 -4 10 -10z m-89 -143 c-1 -12 -15 -9 -19 4 -3 6 1
10 8 8 6 -3 11 -8 11 -12z"/>
<path d="M5924 3199 l-28 -41 28 -23 c25 -20 27 -26 21 -67 -7 -45 -7 -46 39
-78 25 -19 46 -39 46 -45 0 -7 -7 -32 -15 -56 -16 -43 -15 -44 10 -62 31 -23
31 -40 4 -79 -24 -33 -18 -45 27 -54 38 -7 42 3 51 131 7 104 -2 130 -69 204
-39 41 -40 45 -35 95 3 28 8 61 12 72 5 18 1 23 -26 33 -17 6 -33 11 -34 11
-1 0 -15 -19 -31 -41z"/>
<path d="M3736 3208 c-3 -13 -6 -44 -6 -71 l0 -47 -56 -28 -56 -27 5 -63 5
-64 -45 -19 c-42 -18 -45 -21 -38 -47 4 -15 9 -44 10 -65 3 -41 8 -46 90 -92
65 -36 156 -45 218 -21 136 52 208 249 141 385 -31 61 -77 99 -182 147 -40 19
-75 34 -76 34 -2 0 -6 -10 -10 -22z m60 -214 c56 -27 58 -91 4 -145 -32 -33
-57 -36 -101 -14 l-30 16 43 79 c24 44 45 80 46 80 2 0 19 -7 38 -16z"/>
<path d="M5545 3028 c-66 -22 -122 -43 -125 -45 -3 -3 14 -21 38 -41 l43 -37
-17 -49 -17 -50 43 -37 43 -37 -13 -53 c-12 -49 -12 -54 8 -68 89 -69 89 -70
85 -94 l-5 -24 91 31 c50 17 95 36 100 41 5 6 6 36 4 68 -6 66 2 64 -106 31
-50 -15 -60 -15 -68 -3 -15 24 -10 37 16 43 30 8 31 14 3 79 -28 67 -32 71
-58 57 -25 -14 -26 -13 -35 20 -6 24 -2 27 60 49 l67 24 -7 46 c-9 65 -16 91
-24 90 -3 -1 -60 -19 -126 -41z"/>
<path d="M4111 2923 c-43 -162 -63 -269 -58 -316 6 -63 16 -72 51 -44 l28 23
-16 54 -16 54 32 33 32 33 -18 50 -18 50 41 46 c23 26 41 52 41 58 0 20 -23
36 -51 36 -25 0 -28 -5 -48 -77z m56 21 c-9 -9 -28 6 -21 18 4 6 10 6 17 -1 6
-6 8 -13 4 -17z m-37 -169 c0 -8 -4 -15 -10 -15 -5 0 -10 7 -10 15 0 8 5 15
10 15 6 0 10 -7 10 -15z m-30 -165 c0 -5 -7 -10 -16 -10 -8 0 -12 5 -9 10 3 6
10 10 16 10 5 0 9 -4 9 -10z"/>
<path d="M4240 2978 c0 -8 -15 -32 -33 -54 -63 -75 -60 -68 -38 -113 28 -54
27 -59 -16 -95 l-36 -32 18 -47 18 -48 -33 -34 -34 -35 29 -30 c60 -63 228
-90 310 -50 65 32 81 63 126 247 23 93 42 174 43 181 1 10 -152 82 -176 82 -4
0 -8 -8 -8 -17 0 -39 -73 -315 -87 -328 -18 -19 -44 -19 -68 -2 -21 16 -20 28
24 231 17 77 30 140 28 142 -1 1 -17 5 -34 9 -25 5 -33 3 -33 -7z"/>
<path d="M5359 2960 c-14 -8 -6 -38 62 -237 42 -125 82 -241 88 -256 l11 -28
43 23 c33 19 43 29 45 54 3 28 -3 35 -51 68 l-55 36 15 52 c17 56 17 56 -51
104 -19 13 -19 17 -7 65 l14 52 -39 38 c-42 40 -50 44 -75 29z m66 -60 c3 -5
-1 -10 -9 -10 -9 0 -16 5 -16 10 0 6 4 10 9 10 6 0 13 -4 16 -10z m55 -185 c0
-8 -4 -15 -9 -15 -13 0 -22 16 -14 24 11 11 23 6 23 -9z m80 -185 c0 -5 -7
-10 -16 -10 -8 0 -12 5 -9 10 3 6 10 10 16 10 5 0 9 -4 9 -10z"/>
<path d="M5207 2929 c-188 -44 -274 -228 -187 -399 25 -49 84 -107 127 -125
50 -21 149 -19 201 5 46 21 55 40 20 40 -13 0 -43 9 -67 20 -43 20 -43 20 -88
0 -65 -29 -70 -27 -78 30 -6 45 -11 52 -56 81 -27 17 -49 35 -49 40 0 4 13 23
29 42 25 28 31 45 37 111 6 72 8 77 28 72 89 -22 103 -20 150 20 25 22 45 44
46 50 0 6 -14 14 -31 18 -35 7 -31 7 -82 -5z m33 -44 c0 -8 -4 -15 -10 -15 -5
0 -10 7 -10 15 0 8 5 15 10 15 6 0 10 -7 10 -15z m-180 -143 c0 -13 -12 -22
-22 -16 -10 6 -1 24 13 24 5 0 9 -4 9 -8z m34 -223 c-3 -5 -10 -7 -15 -3 -5 3
-7 10 -3 15 3 5 10 7 15 3 5 -3 7 -10 3 -15z m181 -69 c3 -5 -1 -10 -10 -10
-9 0 -13 5 -10 10 3 6 8 10 10 10 2 0 7 -4 10 -10z"/>
<path d="M4710 2890 c0 -5 5 -29 11 -52 10 -37 9 -49 -8 -88 -19 -44 -19 -45
0 -97 l20 -53 -26 -37 -26 -36 24 -48 c23 -45 24 -50 10 -83 l-15 -36 94 0 95
0 11 58 c6 31 14 67 17 79 5 20 1 22 -54 25 l-58 3 4 188 4 187 -52 0 c-28 0
-51 -4 -51 -10z"/>
<path d="M4629 2873 c0 -10 -2 -29 -4 -43 -1 -14 -6 -123 -10 -242 l-7 -217
28 -7 c20 -5 30 -2 41 12 25 35 27 65 4 111 l-21 44 24 36 25 36 -20 52 -20
53 23 46 c21 44 21 48 7 89 -13 33 -21 43 -42 45 -20 3 -27 -1 -28 -15z m51
-43 c0 -5 -7 -10 -15 -10 -8 0 -15 5 -15 10 0 6 7 10 15 10 8 0 15 -4 15 -10z
m0 -190 c0 -5 -7 -10 -15 -10 -8 0 -15 5 -15 10 0 6 7 10 15 10 8 0 15 -4 15
-10z m-8 -205 c0 -5 -5 -11 -11 -13 -6 -2 -11 4 -11 13 0 9 5 15 11 13 6 -2
11 -8 11 -13z"/>
<path d="M5275 2840 c-29 -31 -32 -32 -92 -26 l-63 7 0 -60 c0 -53 -4 -65 -30
-94 -16 -19 -30 -39 -30 -45 0 -6 19 -21 42 -34 36 -19 44 -30 51 -66 9 -47
19 -50 72 -25 33 16 38 16 86 -1 27 -10 52 -16 55 -13 4 3 1 22 -6 42 -12 37
-12 37 -57 30 -81 -12 -133 31 -133 112 0 47 26 76 85 96 34 12 41 19 47 52
12 55 7 60 -27 25z"/>
<path d="M2980 8553 c-21 -8 -39 -34 -40 -55 0 -10 19 -54 43 -98 36 -68 46
-80 68 -80 30 0 59 27 59 56 0 10 -17 56 -37 101 -39 83 -50 92 -93 76z"/>
<path d="M6642 8548 c-5 -7 -27 -51 -48 -97 l-38 -84 23 -18 c29 -24 63 -24
83 -1 9 9 33 52 54 96 l38 78 -23 19 c-26 22 -74 25 -89 7z"/>
<path d="M6823 8465 c-30 -21 -102 -169 -92 -188 5 -8 22 -20 39 -27 27 -11
33 -10 51 6 19 17 99 160 99 177 0 7 -59 47 -70 47 -3 0 -15 -7 -27 -15z"/>
<path d="M2805 8458 c-11 -6 -23 -16 -28 -22 -13 -18 1 -64 33 -111 16 -24 34
-55 40 -69 10 -29 26 -32 65 -14 39 18 43 54 11 108 -14 25 -34 62 -44 82 -18
40 -40 47 -77 26z"/>
<path d="M2649 8369 c-14 -5 -31 -21 -38 -35 -13 -29 -2 -54 48 -117 16 -21
33 -47 36 -58 13 -41 95 -9 95 37 0 14 -15 49 -33 77 -19 29 -41 64 -50 80
-19 30 -20 30 -58 16z"/>
<path d="M6979 8364 c-8 -9 -33 -49 -56 -88 -36 -62 -40 -73 -29 -91 7 -11 25
-24 39 -29 33 -12 57 8 99 79 16 28 36 60 44 72 15 21 14 24 -10 48 -29 29
-67 33 -87 9z"/>
<path d="M2501 8271 c-13 -3 -33 -18 -44 -32 -23 -31 -19 -40 52 -136 51 -70
74 -78 109 -40 30 31 28 46 -11 98 -18 24 -43 61 -56 82 -12 20 -23 37 -24 36
-1 -1 -13 -4 -26 -8z"/>
<path d="M7147 8268 c-25 -19 -109 -160 -103 -174 9 -23 54 -46 76 -39 12 4
42 38 66 75 24 38 49 72 54 75 16 10 12 20 -16 49 -29 29 -51 33 -77 14z"/>
<path d="M2334 8155 c-59 -25 -58 -64 1 -134 25 -29 50 -62 56 -72 5 -10 19
-19 30 -19 23 0 69 42 69 63 0 11 -91 140 -118 169 -4 4 -21 1 -38 -7z"/>
<path d="M7286 8138 c-67 -87 -96 -129 -96 -138 0 -20 41 -50 68 -50 24 0 38
13 85 76 32 42 57 82 57 89 0 18 -48 55 -71 55 -10 0 -29 -15 -43 -32z"/>
<path d="M2190 8043 c-63 -23 -64 -67 -2 -136 26 -29 54 -63 62 -76 15 -23 17
-23 48 -7 33 17 50 54 35 78 -16 28 -117 148 -122 147 -3 0 -13 -3 -21 -6z"/>
<path d="M7454 8042 c-20 -13 -114 -143 -114 -157 0 -16 47 -55 67 -55 15 0
35 19 101 98 48 57 50 69 22 100 -21 22 -55 28 -76 14z"/>
<path d="M7598 7918 c-29 -23 -118 -137 -118 -151 0 -25 47 -60 72 -54 23 6
148 137 148 155 0 16 -52 62 -69 62 -10 0 -24 -6 -33 -12z"/>
<path d="M2015 7895 c-14 -13 -25 -31 -25 -40 0 -14 103 -134 134 -157 6 -3
22 0 38 8 30 15 45 53 31 77 -21 37 -122 137 -137 137 -9 0 -28 -11 -41 -25z"/>
<path d="M1892 7779 c-30 -18 -37 -33 -32 -69 1 -8 32 -43 68 -78 59 -55 70
-62 92 -55 33 11 52 50 38 77 -6 12 -39 49 -73 83 l-62 62 -31 -20z"/>
<path d="M7679 7728 c-38 -40 -69 -76 -69 -79 0 -4 9 -18 21 -33 34 -43 63
-35 140 43 38 38 69 73 69 79 0 18 -50 62 -71 62 -14 0 -46 -26 -90 -72z"/>
<path d="M1764 7648 c-26 -12 -47 -54 -39 -78 3 -10 39 -45 80 -79 l75 -61 32
29 c30 26 31 31 20 55 -10 24 -124 138 -141 143 -3 1 -16 -3 -27 -9z"/>
<path d="M7806 7591 l-71 -70 21 -28 c36 -49 66 -43 142 28 37 34 68 68 70 74
1 6 -7 23 -18 38 -35 44 -63 36 -144 -42z"/>
<path d="M1626 7499 c-17 -14 -26 -30 -26 -50 0 -32 14 -49 83 -98 26 -19 47
-38 47 -43 0 -16 40 -8 60 12 36 36 26 63 -47 127 -88 77 -86 76 -117 52z"/>
<path d="M7938 7455 c-38 -36 -68 -71 -68 -78 0 -26 31 -57 58 -57 23 0 82 42
165 120 11 10 -18 66 -38 74 -34 13 -52 4 -117 -59z"/>
<path d="M1506 7349 c-38 -30 -35 -71 7 -103 120 -93 126 -96 147 -84 11 7 25
25 31 40 12 29 3 51 -29 71 -7 5 -38 29 -68 53 -29 24 -55 44 -58 44 -2 0 -15
-9 -30 -21z"/>
<path d="M8067 7320 c-32 -27 -65 -53 -73 -58 -12 -7 -13 -14 -4 -37 24 -63
63 -60 157 12 78 59 83 73 45 116 -26 30 -63 20 -125 -33z"/>
<path d="M8194 7179 c-27 -22 -62 -47 -77 -55 -22 -12 -27 -20 -21 -37 20 -67
66 -73 138 -19 28 21 61 44 74 51 28 15 28 40 1 75 -29 36 -59 33 -115 -15z"/>
<path d="M1381 7184 c-12 -15 -21 -35 -21 -44 0 -18 53 -70 70 -70 5 0 30 -16
56 -36 l48 -37 28 32 c35 39 35 51 1 82 -44 40 -132 99 -147 99 -8 0 -24 -12
-35 -26z"/>
<path d="M1282 7037 c-42 -45 -28 -89 42 -124 28 -14 63 -34 78 -45 42 -30 78
-3 78 58 0 19 -17 35 -85 79 -47 30 -87 55 -89 55 -1 0 -12 -10 -24 -23z"/>
<path d="M8305 7030 c-21 -17 -53 -40 -72 -51 -36 -23 -41 -43 -17 -77 24 -35
66 -28 141 23 36 25 70 45 75 45 14 0 0 51 -19 73 -24 26 -65 21 -108 -13z"/>
<path d="M8378 6852 c-82 -50 -92 -67 -62 -110 23 -33 55 -27 144 24 86 50 89
56 54 112 -21 32 -49 27 -136 -26z"/>
<path d="M1175 6866 c-9 -14 -15 -37 -13 -53 2 -23 14 -34 73 -65 39 -20 76
-41 82 -47 28 -25 80 30 69 73 -5 22 -153 116 -181 116 -8 0 -22 -11 -30 -24z"/>
<path d="M1092 6707 c-13 -14 -22 -36 -22 -55 0 -30 5 -34 93 -77 l92 -46 23
26 c42 49 22 82 -81 130 -31 15 -60 31 -63 36 -8 14 -19 11 -42 -14z"/>
<path d="M8490 6700 c-24 -16 -57 -35 -72 -41 -21 -8 -28 -18 -28 -38 0 -32 8
-44 37 -60 19 -10 34 -5 110 35 49 25 90 48 92 50 7 7 -9 53 -25 68 -24 24
-64 19 -114 -14z"/>
<path d="M8548 6518 c-84 -44 -94 -61 -62 -106 21 -31 46 -28 141 15 72 33 83
41 83 63 0 38 -27 70 -58 70 -15 -1 -62 -19 -104 -42z"/>
<path d="M993 6514 c-26 -54 -20 -61 119 -123 70 -31 73 -31 97 17 22 41 4 61
-86 103 -47 21 -91 39 -99 39 -8 0 -22 -16 -31 -36z"/>
<path d="M8670 6366 c-147 -63 -137 -53 -119 -105 16 -46 47 -49 131 -12 39
17 76 31 84 31 34 0 22 79 -15 99 -24 13 -16 15 -81 -13z"/>
<path d="M926 6358 c-21 -30 -20 -71 2 -90 9 -8 54 -28 100 -43 81 -28 83 -28
97 -9 20 26 19 68 -3 87 -10 9 -45 26 -77 37 -33 11 -64 25 -69 30 -16 16 -34
12 -50 -12z"/>
<path d="M8695 6176 c-88 -36 -101 -55 -71 -102 21 -31 50 -31 128 1 34 14 70
25 80 25 25 0 25 70 0 93 -25 23 -45 21 -137 -17z"/>
<path d="M856 6179 c-9 -13 -16 -36 -16 -51 0 -33 25 -51 94 -67 27 -7 62 -19
77 -26 26 -14 29 -13 48 11 24 31 27 66 7 83 -11 10 -81 36 -177 67 -10 4 -23
-3 -33 -17z"/>
<path d="M8755 5999 c-83 -29 -92 -39 -81 -85 11 -42 46 -47 131 -19 42 14 82
25 90 25 23 0 20 73 -3 93 -24 22 -42 20 -137 -14z"/>
<path d="M796 5995 c-20 -30 -21 -69 -1 -85 14 -12 143 -50 179 -53 26 -3 51
42 43 75 -6 23 -19 30 -103 57 -52 17 -97 31 -99 31 -1 0 -10 -11 -19 -25z"/>
<path d="M8795 5815 c-55 -18 -71 -27 -73 -44 -5 -34 24 -71 56 -71 28 0 171
36 180 45 9 9 3 66 -9 81 -16 20 -72 16 -154 -11z"/>
<path d="M742 5810 c-14 -23 -16 -59 -3 -79 7 -11 128 -45 190 -54 21 -3 45
45 38 75 -7 28 -28 39 -125 62 -81 20 -85 20 -100 -4z"/>
<path d="M8847 5637 c-83 -23 -101 -42 -78 -86 21 -39 42 -41 142 -17 93 22
94 22 97 53 4 38 -26 74 -60 72 -13 -1 -58 -11 -101 -22z"/>
<path d="M706 5635 c-21 -22 -21 -78 2 -97 9 -9 52 -20 94 -27 43 -6 83 -12
89 -13 19 -5 43 45 36 75 -8 28 -20 34 -112 52 -33 7 -67 15 -76 19 -10 4 -23
1 -33 -9z"/>
<path d="M8895 5458 c-27 -5 -60 -12 -72 -14 -19 -4 -23 -11 -23 -42 0 -66 21
-72 163 -50 l77 11 0 34 c0 73 -24 84 -145 61z"/>
<path d="M671 5446 c-6 -7 -14 -26 -17 -42 -9 -45 20 -64 108 -74 40 -5 80
-11 89 -15 20 -7 37 13 45 51 8 43 -20 63 -102 75 -38 5 -79 11 -90 14 -12 3
-27 -1 -33 -9z"/>
<path d="M8918 5271 c-76 -13 -87 -18 -92 -37 -8 -29 8 -70 30 -78 10 -4 60
-1 111 6 87 11 94 14 100 37 7 30 -14 71 -42 80 -11 4 -59 0 -107 -8z"/>
<path d="M641 5252 c-15 -28 -14 -64 3 -87 10 -14 33 -20 107 -26 104 -8 119
-1 119 53 0 37 -30 54 -110 62 -36 4 -75 10 -87 12 -15 4 -25 0 -32 -14z"/>
<path d="M8908 5083 c-57 -4 -57 -4 -64 -39 -5 -26 -2 -40 12 -55 17 -19 27
-20 117 -16 54 3 101 7 104 10 11 11 6 76 -6 91 -14 16 -30 17 -163 9z"/>
<path d="M621 5058 c-16 -25 -14 -64 5 -82 11 -11 35 -16 83 -16 38 0 82 -3
98 -6 27 -5 32 -3 41 24 7 21 7 36 -2 53 -12 25 -42 33 -152 41 -51 3 -64 1
-73 -14z"/>
<path d="M8866 4884 c-9 -8 -16 -29 -16 -44 0 -47 30 -59 133 -54 48 2 92 6
97 9 14 9 12 79 -2 93 -19 19 -193 16 -212 -4z"/>
<path d="M610 4862 c-31 -69 0 -93 124 -95 90 -2 96 -1 106 21 14 32 13 47 -7
70 -16 18 -32 21 -115 24 -93 3 -98 2 -108 -20z"/>
<path d="M8854 4685 c-9 -35 3 -73 24 -79 9 -2 57 -6 107 -8 89 -3 90 -3 103
25 11 22 11 32 0 55 -13 27 -15 27 -120 30 l-107 3 -7 -26z"/>
<path d="M608 4664 c-10 -21 -9 -31 3 -52 14 -26 18 -27 114 -29 108 -2 125 6
125 53 0 44 -23 54 -131 54 -97 0 -100 -1 -111 -26z"/>
<path d="M8848 4501 c-13 -35 -2 -70 25 -80 12 -5 61 -10 109 -13 83 -4 87 -3
97 19 15 33 14 48 -6 71 -15 17 -33 21 -117 24 -97 4 -98 4 -108 -21z"/>
<path d="M673 4503 c-44 -4 -52 -7 -57 -28 -17 -66 22 -97 104 -84 25 4 64 8
87 8 38 1 42 4 48 31 5 21 2 39 -9 55 -17 26 -30 28 -173 18z"/>
<path d="M8840 4330 c-16 -30 -12 -78 8 -89 9 -5 58 -14 107 -20 100 -12 115
-6 115 50 0 40 -23 57 -87 64 -32 3 -75 7 -96 9 -29 3 -40 0 -47 -14z"/>
<path d="M755 4319 c-22 -4 -56 -8 -76 -8 -24 -1 -39 -7 -43 -17 -20 -53 14
-109 62 -100 15 2 60 10 100 17 62 10 72 15 73 33 2 38 -2 51 -23 69 -22 18
-32 19 -93 6z"/>
<path d="M8816 4148 c-20 -29 -20 -62 0 -82 8 -9 16 -16 17 -16 1 -1 43 -7 92
-15 103 -16 118 -10 118 45 0 46 -19 58 -111 69 -46 6 -87 13 -92 16 -5 3 -16
-5 -24 -17z"/>
<path d="M723 4127 c-54 -8 -63 -13 -64 -31 -2 -35 2 -60 13 -73 16 -19 36
-18 206 13 17 3 22 11 22 35 0 54 -15 69 -68 68 -26 -1 -75 -6 -109 -12z"/>
<path d="M8783 3969 c-17 -17 -16 -74 0 -88 8 -6 47 -17 88 -25 41 -8 81 -17
90 -21 20 -8 49 29 49 62 0 38 -32 60 -96 67 -33 4 -72 9 -89 12 -17 3 -35 0
-42 -7z"/>
<path d="M775 3943 c-33 -8 -66 -16 -72 -19 -20 -5 -16 -68 5 -87 24 -22 34
-21 137 5 l85 21 0 37 c0 20 -5 41 -12 48 -15 15 -66 13 -143 -5z"/>
<path d="M8745 3790 c-8 -9 -15 -31 -15 -48 0 -39 23 -54 105 -72 33 -7 67
-16 76 -20 18 -10 32 -2 48 27 29 56 6 79 -107 106 -85 21 -93 22 -107 7z"/>
<path d="M845 3765 c-22 -7 -52 -14 -68 -14 -37 -1 -55 -38 -38 -80 16 -37 39
-43 104 -24 28 8 69 19 89 25 43 12 55 36 36 75 -16 33 -59 39 -123 18z"/>
<path d="M8697 3612 c-9 -10 -17 -33 -17 -50 0 -36 24 -56 80 -67 19 -4 54
-14 78 -22 51 -17 67 -9 77 39 10 43 -16 65 -101 87 -38 10 -76 21 -85 25 -9
4 -22 -1 -32 -12z"/>
<path d="M885 3580 c-27 -10 -60 -19 -72 -19 -20 -1 -23 -6 -23 -40 0 -42 20
-71 49 -71 10 0 56 13 102 29 92 32 105 49 75 97 -20 29 -59 31 -131 4z"/>
<path d="M8632 3425 c-18 -39 -14 -63 11 -79 20 -14 163 -66 180 -66 4 0 15
16 24 35 27 56 9 75 -97 108 -49 15 -93 27 -98 27 -5 0 -14 -11 -20 -25z"/>
<path d="M955 3408 c-27 -11 -63 -24 -80 -27 -35 -8 -42 -30 -25 -72 18 -43
50 -47 126 -15 36 14 71 26 78 26 38 0 44 60 10 94 -20 20 -47 19 -109 -6z"/>
<path d="M8565 3244 c-24 -50 -8 -68 99 -111 l90 -36 18 23 c10 12 18 35 18
51 0 34 -21 49 -100 74 -30 10 -59 21 -64 26 -20 19 -44 8 -61 -27z"/>
<path d="M1070 3253 c-8 -3 -37 -16 -65 -28 -27 -13 -59 -25 -70 -27 -25 -4
-30 -31 -15 -69 19 -45 47 -45 144 -2 75 33 86 41 86 63 0 51 -36 79 -80 63z"/>
<path d="M8496 3088 c-36 -51 -15 -83 74 -118 30 -12 62 -28 71 -36 22 -20 44
-9 64 32 21 46 9 66 -57 93 -29 12 -66 28 -81 36 -39 20 -53 19 -71 -7z"/>
<path d="M1080 3054 c-36 -18 -71 -34 -77 -34 -20 0 -16 -64 5 -83 28 -25 54
-21 142 24 81 42 89 53 69 92 -25 47 -51 48 -139 1z"/>
<path d="M8421 2926 c-15 -16 -21 -33 -19 -52 3 -25 15 -35 92 -76 l90 -48 23
22 c27 26 30 69 6 90 -10 9 -49 31 -88 49 -38 18 -73 34 -76 36 -3 2 -15 -7
-28 -21z"/>
<path d="M1148 2877 c-83 -44 -93 -61 -62 -105 23 -33 65 -28 141 18 37 22 70
40 75 40 14 0 9 44 -8 68 -22 32 -57 27 -146 -21z"/>
<path d="M8324 2755 c-22 -34 -11 -72 27 -93 17 -9 56 -31 86 -49 l54 -32 25
26 c28 31 31 64 7 86 -23 19 -154 87 -170 87 -7 0 -20 -11 -29 -25z"/>
<path d="M1262 2725 c-28 -20 -64 -40 -78 -45 -22 -9 -25 -14 -19 -38 9 -37
33 -62 60 -62 12 0 53 20 91 45 37 25 72 45 76 45 14 0 9 44 -8 68 -22 32 -61
28 -122 -13z"/>
<path d="M8247 2619 c-10 -6 -22 -22 -28 -36 -13 -36 9 -66 75 -104 30 -16 60
-37 66 -44 18 -22 36 -18 60 12 28 36 23 72 -16 98 -36 23 -126 79 -134 82 -3
1 -13 -2 -23 -8z"/>
<path d="M1350 2560 c-30 -22 -63 -43 -72 -46 -22 -7 -23 -26 -3 -64 24 -46
60 -40 151 22 67 47 74 55 69 78 -16 64 -65 67 -145 10z"/>
<path d="M8131 2446 c-35 -37 -22 -68 48 -115 32 -22 66 -48 75 -57 15 -15 18
-15 42 1 28 18 43 50 36 77 -4 16 -152 118 -171 118 -4 0 -18 -11 -30 -24z"/>
<path d="M1470 2414 c-25 -19 -57 -41 -72 -50 -32 -17 -36 -48 -12 -82 25 -36
63 -28 134 28 34 28 66 50 71 50 17 0 9 50 -11 70 -29 29 -59 24 -110 -16z"/>
<path d="M8026 2303 c-46 -46 -35 -68 73 -148 l64 -47 26 20 c19 14 26 28 26
52 0 30 -8 39 -65 82 -99 73 -94 71 -124 41z"/>
<path d="M1555 2244 c-38 -31 -72 -58 -73 -59 -7 -6 9 -45 24 -60 29 -29 66
-17 134 40 36 31 66 62 68 71 2 8 -4 26 -12 39 -26 40 -62 32 -141 -31z"/>
<path d="M7912 2163 c-20 -18 -26 -32 -23 -64 0 -9 35 -44 76 -78 64 -52 78
-60 95 -51 23 12 40 41 40 69 0 12 -27 41 -75 80 -41 34 -79 61 -84 61 -5 0
-18 -8 -29 -17z"/>
<path d="M1675 2099 c-38 -33 -71 -66 -73 -73 -1 -7 7 -24 18 -39 34 -43 63
-36 139 35 36 34 68 68 69 76 5 20 -37 62 -62 62 -12 0 -52 -27 -91 -61z"/>
<path d="M7782 2017 c-12 -13 -22 -31 -22 -41 0 -28 140 -157 162 -150 27 8
57 52 51 74 -6 24 -135 140 -155 140 -8 0 -24 -10 -36 -23z"/>
<path d="M1793 1951 l-72 -68 20 -31 c14 -25 26 -32 50 -32 25 0 45 13 99 66
71 68 74 79 42 117 -29 33 -63 20 -139 -52z"/>
<path d="M7655 1886 c-14 -14 -25 -32 -25 -41 0 -13 121 -154 140 -162 3 -2
20 6 38 17 53 32 45 65 -34 141 -36 35 -72 65 -79 67 -8 2 -26 -8 -40 -22z"/>
<path d="M1929 1820 c-38 -39 -69 -75 -69 -81 0 -18 49 -59 71 -59 14 0 46 26
89 72 66 70 68 74 54 99 -13 27 -33 39 -61 39 -9 0 -47 -32 -84 -70z"/>
<path d="M7522 1764 c-37 -26 -28 -58 40 -137 65 -75 84 -83 120 -50 35 31 23
67 -47 137 -35 36 -70 66 -77 66 -8 0 -24 -7 -36 -16z"/>
<path d="M2135 1760 c-11 -4 -40 -32 -65 -61 -24 -30 -50 -58 -57 -62 -21 -13
-15 -44 13 -66 49 -38 61 -32 152 78 31 37 42 57 37 71 -9 27 -54 50 -80 40z"/>
<path d="M7382 1644 c-35 -25 -28 -63 23 -123 25 -29 52 -62 59 -73 13 -19 18
-20 46 -8 31 13 50 37 50 64 0 21 -121 156 -140 156 -9 0 -26 -7 -38 -16z"/>
<path d="M2274 1640 c-11 -5 -29 -20 -39 -36 -9 -15 -36 -47 -58 -71 l-40 -44
20 -27 c20 -28 62 -40 86 -25 8 4 38 39 67 78 49 65 52 71 39 94 -17 29 -47
41 -75 31z"/>
<path d="M7235 1525 c-31 -30 -31 -44 0 -86 14 -19 39 -55 56 -81 35 -53 38
-54 78 -33 28 14 41 33 41 60 0 19 -121 165 -137 165 -8 0 -25 -11 -38 -25z"/>
<path d="M2412 1524 c-7 -3 -30 -31 -51 -63 -21 -31 -46 -63 -55 -70 -21 -18
-20 -21 9 -54 15 -15 36 -27 50 -27 24 0 31 7 111 114 l36 49 -20 26 c-18 25
-53 36 -80 25z"/>
<path d="M7081 1416 c-30 -31 -24 -54 28 -126 22 -30 46 -64 54 -74 14 -20 14
-20 48 0 50 30 51 67 1 130 -22 27 -44 59 -51 72 -16 29 -51 28 -80 -2z"/>
<path d="M2562 1413 c-32 -27 -113 -155 -108 -169 3 -7 16 -20 30 -30 33 -21
71 -12 92 24 10 15 32 50 50 79 37 58 36 76 -7 98 -35 18 -33 19 -57 -2z"/>
<path d="M6932 1324 c-32 -22 -28 -61 14 -124 20 -30 40 -65 45 -77 11 -29 38
-29 73 -2 36 28 33 53 -19 133 -25 38 -45 73 -45 78 0 14 -44 9 -68 -8z"/>
<path d="M2719 1318 c-9 -7 -37 -49 -64 -92 l-48 -79 27 -24 c32 -27 67 -30
88 -5 32 35 89 153 83 171 -5 16 -44 41 -64 41 -4 0 -14 -6 -22 -12z"/>
<path d="M6780 1237 c-40 -20 -37 -53 11 -144 38 -71 48 -83 70 -83 38 0 72
36 64 69 -9 35 -96 171 -109 171 -6 0 -22 -6 -36 -13z"/>
<path d="M2881 1224 c-12 -9 -33 -39 -47 -67 -15 -29 -35 -64 -45 -79 l-19
-26 31 -26 c55 -47 76 -35 133 79 41 81 42 87 19 107 -29 24 -49 27 -72 12z"/>
<path d="M6601 1136 c-26 -27 -24 -42 15 -116 13 -25 28 -57 33 -72 8 -22 17
-28 39 -28 29 0 72 31 73 53 0 7 -19 51 -43 99 -37 75 -47 87 -69 87 -15 1
-35 -9 -48 -23z"/>
<path d="M3033 1131 c-10 -11 -33 -54 -52 -96 -33 -74 -33 -76 -15 -96 13 -14
28 -19 53 -17 39 3 39 3 96 128 l25 55 -26 23 c-31 27 -58 28 -81 3z"/>
<path d="M6437 1062 c-24 -26 -21 -51 13 -127 17 -37 30 -73 30 -81 0 -24 58
-17 86 11 29 29 28 33 -23 141 -31 65 -38 74 -63 74 -15 0 -34 -8 -43 -18z"/>
<path d="M3190 1038 c-11 -18 -20 -37 -20 -42 0 -4 -11 -31 -25 -59 -30 -58
-27 -73 16 -91 58 -24 66 -16 113 105 31 78 31 81 8 102 -31 28 -70 22 -92
-15z"/>
<path d="M6264 985 l-24 -24 26 -68 c14 -37 29 -79 33 -93 13 -46 94 -35 107
15 4 16 -4 47 -24 92 -17 37 -33 76 -36 86 -8 25 -53 21 -82 -8z"/>
<path d="M3366 978 c-7 -13 -22 -48 -31 -78 -10 -30 -21 -59 -26 -64 -17 -19
-9 -42 20 -59 16 -9 35 -17 42 -17 24 0 50 34 65 89 9 31 23 68 30 83 13 25
12 29 -8 48 -29 27 -74 26 -92 -2z"/>
<path d="M6102 938 c-35 -17 -37 -51 -8 -123 14 -36 26 -74 26 -84 0 -35 54
-37 93 -3 24 21 22 34 -16 132 -35 90 -48 101 -95 78z"/>
<path d="M3548 923 c-8 -10 -27 -56 -42 -103 l-27 -85 22 -17 c47 -39 91 -16
110 55 6 23 18 62 26 87 15 42 14 45 -7 62 -28 23 -63 23 -82 1z"/>
<path d="M3731 873 c-14 -11 -29 -44 -40 -89 -10 -40 -22 -77 -26 -84 -12 -19
25 -50 60 -50 43 0 60 23 75 100 6 36 16 72 21 81 19 36 -55 70 -90 42z"/>
<path d="M5905 866 c-15 -23 -15 -30 9 -106 14 -44 26 -88 26 -96 0 -9 10 -14
29 -14 76 0 90 33 56 132 -14 39 -25 80 -25 90 0 14 -8 18 -40 18 -31 0 -43
-5 -55 -24z"/>
<path d="M5741 834 c-20 -15 -23 -22 -17 -63 3 -25 12 -73 19 -106 12 -54 16
-60 41 -63 36 -5 76 22 76 52 0 20 -36 176 -43 182 -13 13 -56 12 -76 -2z"/>
<path d="M3896 818 c-8 -13 -22 -61 -31 -107 -16 -81 -16 -85 1 -98 26 -19 81
-17 93 5 5 9 16 57 26 107 16 85 16 90 -1 102 -28 21 -72 16 -88 -9z"/>
<path d="M5561 794 c-21 -15 -23 -22 -17 -73 15 -130 19 -145 48 -155 40 -14
78 14 78 59 0 48 -29 168 -43 177 -19 12 -41 9 -66 -8z"/>
<path d="M4076 778 c-8 -13 -17 -50 -21 -82 -4 -33 -11 -70 -16 -83 -18 -47
77 -75 105 -30 8 12 18 49 22 82 3 33 10 70 15 82 18 48 -76 76 -105 31z"/>
<path d="M4292 772 c-29 -5 -40 -27 -48 -98 -3 -33 -10 -71 -14 -86 -7 -23 -5
-30 13 -43 32 -22 74 -19 91 8 7 12 16 62 20 113 5 87 5 91 -17 100 -12 6 -32
8 -45 6z"/>
<path d="M5369 759 c-18 -18 -20 -29 -15 -63 4 -22 9 -67 13 -98 5 -49 9 -57
29 -62 34 -9 73 3 85 26 12 23 -18 197 -36 210 -19 14 -55 8 -76 -13z"/>
<path d="M5200 747 c-25 -13 -25 -15 -21 -117 3 -111 7 -120 54 -120 40 0 70
34 63 73 -3 18 -8 62 -12 99 -6 56 -10 67 -28 72 -28 8 -27 8 -56 -7z"/>
<path d="M4444 733 c-4 -10 -13 -58 -19 -106 -10 -84 -10 -90 9 -103 27 -19
70 -18 87 2 16 20 29 194 16 212 -15 19 -83 15 -93 -5z"/>
<path d="M4629 724 c-19 -24 -26 -203 -8 -215 28 -17 78 -10 93 14 18 28 20
198 3 209 -21 13 -74 8 -88 -8z"/>
<path d="M4822 724 c-20 -14 -22 -23 -22 -114 0 -90 2 -100 21 -110 29 -16 79
-3 88 24 5 12 6 63 4 113 -5 82 -8 92 -27 97 -32 9 -40 7 -64 -10z"/>
<path d="M4999 724 c-17 -21 -14 -205 4 -216 7 -4 26 -8 44 -8 52 0 64 27 56
134 -3 50 -11 94 -17 98 -20 14 -73 8 -87 -8z"/>
</g>
</svg>
